<?xml version="1.0" encoding="UTF-8" standalone="no"?><svg xmlns="http://www.w3.org/2000/svg" xmlns:xlink="http://www.w3.org/1999/xlink" contentStyleType="text/css" height="943px" preserveAspectRatio="none" style="width:4743px;height:943px;background:#FFFFFF;" version="1.1" viewBox="0 0 4743 943" width="4743px" zoomAndPan="magnify"><defs/><g><!--MD5=[65d45e504f4d3de57536c03dbb6f0138]
cluster com.welab.integral.service--><g id="cluster_com.welab.integral.service"><path d="M8.5,120.5 L198.5,120.5 A3.75,3.75 0 0 1 201,123 L208,144.1094 L1034.5,144.1094 A2.5,2.5 0 0 1 1037,146.6094 L1037,306 A2.5,2.5 0 0 1 1034.5,308.5 L8.5,308.5 A2.5,2.5 0 0 1 6,306 L6,123 A2.5,2.5 0 0 1 8.5,120.5 " fill="none" style="stroke:#000000;stroke-width:1.5;"/><line style="stroke:#000000;stroke-width:1.5;" x1="6" x2="208" y1="144.1094" y2="144.1094"/><text fill="#000000" font-family="sans-serif" font-size="14" font-weight="bold" lengthAdjust="spacing" textLength="189" x="10" y="137.0332">com.welab.integral.service</text></g><!--MD5=[e9dc44557069877cbe545004bd1ae28c]
cluster com.welab.integral.common--><g id="cluster_com.welab.integral.common"><path d="M1063.5,138 L1259.5,138 A3.75,3.75 0 0 1 1262,140.5 L1269,161.6094 L1269.5,161.6094 A2.5,2.5 0 0 1 1272,164.1094 L1272,288.5 A2.5,2.5 0 0 1 1269.5,291 L1063.5,291 A2.5,2.5 0 0 1 1061,288.5 L1061,140.5 A2.5,2.5 0 0 1 1063.5,138 " fill="none" style="stroke:#000000;stroke-width:1.5;"/><line style="stroke:#000000;stroke-width:1.5;" x1="1061" x2="1269" y1="161.6094" y2="161.6094"/><text fill="#000000" font-family="sans-serif" font-size="14" font-weight="bold" lengthAdjust="spacing" textLength="195" x="1065" y="154.5332">com.welab.integral.common</text></g><!--MD5=[799ae5b394e7139511b094d2dd8746ce]
cluster com.welab.integral.test--><g id="cluster_com.welab.integral.test"><path d="M1242.5,526 L1406.5,526 A3.75,3.75 0 0 1 1409,528.5 L1416,549.6094 L1865.5,549.6094 A2.5,2.5 0 0 1 1868,552.1094 L1868,933.5 A2.5,2.5 0 0 1 1865.5,936 L1242.5,936 A2.5,2.5 0 0 1 1240,933.5 L1240,528.5 A2.5,2.5 0 0 1 1242.5,526 " fill="none" style="stroke:#000000;stroke-width:1.5;"/><line style="stroke:#000000;stroke-width:1.5;" x1="1240" x2="1416" y1="549.6094" y2="549.6094"/><text fill="#000000" font-family="sans-serif" font-size="14" font-weight="bold" lengthAdjust="spacing" textLength="163" x="1244" y="542.5332">com.welab.integral.test</text></g><!--MD5=[b2c770d1084885479c5badf606195d98]
cluster com.welab.integral.config--><g id="cluster_com.welab.integral.config"><path d="M1752.5,147 L1933.5,147 A3.75,3.75 0 0 1 1936,149.5 L1943,170.6094 L1953.5,170.6094 A2.5,2.5 0 0 1 1956,173.1094 L1956,279.5 A2.5,2.5 0 0 1 1953.5,282 L1752.5,282 A2.5,2.5 0 0 1 1750,279.5 L1750,149.5 A2.5,2.5 0 0 1 1752.5,147 " fill="none" style="stroke:#000000;stroke-width:1.5;"/><line style="stroke:#000000;stroke-width:1.5;" x1="1750" x2="1943" y1="170.6094" y2="170.6094"/><text fill="#000000" font-family="sans-serif" font-size="14" font-weight="bold" lengthAdjust="spacing" textLength="180" x="1754" y="163.5332">com.welab.integral.config</text></g><!--MD5=[779024fcfdfb48121b61efb270435b65]
cluster com.welab.integral.dto--><g id="cluster_com.welab.integral.dto"><path d="M1894.5,508.5 L2054.5,508.5 A3.75,3.75 0 0 1 2057,511 L2064,532.1094 L2279.5,532.1094 A2.5,2.5 0 0 1 2282,534.6094 L2282,916 A2.5,2.5 0 0 1 2279.5,918.5 L1894.5,918.5 A2.5,2.5 0 0 1 1892,916 L1892,511 A2.5,2.5 0 0 1 1894.5,508.5 " fill="none" style="stroke:#000000;stroke-width:1.5;"/><line style="stroke:#000000;stroke-width:1.5;" x1="1892" x2="2064" y1="532.1094" y2="532.1094"/><text fill="#000000" font-family="sans-serif" font-size="14" font-weight="bold" lengthAdjust="spacing" textLength="159" x="1896" y="525.0332">com.welab.integral.dto</text></g><!--MD5=[2e0608dce44fb10b5b0b8f0f7b24b683]
cluster com.welab.integral.service.impl--><g id="cluster_com.welab.integral.service.impl"><path d="M8.5,482 L231.5,482 A3.75,3.75 0 0 1 234,484.5 L241,505.6094 L677.5,505.6094 A2.5,2.5 0 0 1 680,508.1094 L680,720.5 A2.5,2.5 0 0 1 677.5,723 L8.5,723 A2.5,2.5 0 0 1 6,720.5 L6,484.5 A2.5,2.5 0 0 1 8.5,482 " fill="none" style="stroke:#000000;stroke-width:1.5;"/><line style="stroke:#000000;stroke-width:1.5;" x1="6" x2="241" y1="505.6094" y2="505.6094"/><text fill="#000000" font-family="sans-serif" font-size="14" font-weight="bold" lengthAdjust="spacing" textLength="222" x="10" y="498.5332">com.welab.integral.service.impl</text></g><!--MD5=[75b9c897c211a26294e5324dcd25ac24]
cluster com.welab.integral.model--><g id="cluster_com.welab.integral.model"><path d="M2639.5,6 L2819.5,6 A3.75,3.75 0 0 1 2822,8.5 L2829,29.6094 L2874.5,29.6094 A2.5,2.5 0 0 1 2877,32.1094 L2877,420.5 A2.5,2.5 0 0 1 2874.5,423 L2639.5,423 A2.5,2.5 0 0 1 2637,420.5 L2637,8.5 A2.5,2.5 0 0 1 2639.5,6 " fill="none" style="stroke:#000000;stroke-width:1.5;"/><line style="stroke:#000000;stroke-width:1.5;" x1="2637" x2="2829" y1="29.6094" y2="29.6094"/><text fill="#000000" font-family="sans-serif" font-size="14" font-weight="bold" lengthAdjust="spacing" textLength="179" x="2641" y="22.5332">com.welab.integral.model</text></g><!--MD5=[f22b4279d6388a91df4da7cd17b4ecbc]
cluster com.welab.integral.exception--><g id="cluster_com.welab.integral.exception"><path d="M2964.5,526 L3171.5,526 A3.75,3.75 0 0 1 3174,528.5 L3181,549.6094 L3283.5,549.6094 A2.5,2.5 0 0 1 3286,552.1094 L3286,676.5 A2.5,2.5 0 0 1 3283.5,679 L2964.5,679 A2.5,2.5 0 0 1 2962,676.5 L2962,528.5 A2.5,2.5 0 0 1 2964.5,526 " fill="none" style="stroke:#000000;stroke-width:1.5;"/><line style="stroke:#000000;stroke-width:1.5;" x1="2962" x2="3181" y1="549.6094" y2="549.6094"/><text fill="#000000" font-family="sans-serif" font-size="14" font-weight="bold" lengthAdjust="spacing" textLength="206" x="2966" y="542.5332">com.welab.integral.exception</text></g><!--MD5=[79c7d7bb6d368c14ba65cd8cda4326a8]
cluster com.welab.integral.mapper--><g id="cluster_com.welab.integral.mapper"><path d="M3264.5,138 L3454.5,138 A3.75,3.75 0 0 1 3457,140.5 L3464,161.6094 L4024.5,161.6094 A2.5,2.5 0 0 1 4027,164.1094 L4027,288.5 A2.5,2.5 0 0 1 4024.5,291 L3264.5,291 A2.5,2.5 0 0 1 3262,288.5 L3262,140.5 A2.5,2.5 0 0 1 3264.5,138 " fill="none" style="stroke:#000000;stroke-width:1.5;"/><line style="stroke:#000000;stroke-width:1.5;" x1="3262" x2="3464" y1="161.6094" y2="161.6094"/><text fill="#000000" font-family="sans-serif" font-size="14" font-weight="bold" lengthAdjust="spacing" textLength="189" x="3266" y="154.5332">com.welab.integral.mapper</text></g><!--MD5=[b14a3665d643d61efddfa74abe869a76]
cluster com.welab.integral.vo--><g id="cluster_com.welab.integral.vo"><path d="M2308.5,482 L2463.5,482 A3.75,3.75 0 0 1 2466,484.5 L2473,505.6094 L2935.5,505.6094 A2.5,2.5 0 0 1 2938,508.1094 L2938,720.5 A2.5,2.5 0 0 1 2935.5,723 L2308.5,723 A2.5,2.5 0 0 1 2306,720.5 L2306,484.5 A2.5,2.5 0 0 1 2308.5,482 " fill="none" style="stroke:#000000;stroke-width:1.5;"/><line style="stroke:#000000;stroke-width:1.5;" x1="2306" x2="2473" y1="505.6094" y2="505.6094"/><text fill="#000000" font-family="sans-serif" font-size="14" font-weight="bold" lengthAdjust="spacing" textLength="154" x="2310" y="498.5332">com.welab.integral.vo</text></g><!--MD5=[9a4d9734af4e9a8ce80413ffabeb9ae9]
cluster com.welab.integral.filter--><g id="cluster_com.welab.integral.filter"><path d="M3906.5,447 L4076.5,447 A3.75,3.75 0 0 1 4079,449.5 L4086,470.6094 L4427.5,470.6094 A2.5,2.5 0 0 1 4430,473.1094 L4430,755.5 A2.5,2.5 0 0 1 4427.5,758 L3906.5,758 A2.5,2.5 0 0 1 3904,755.5 L3904,449.5 A2.5,2.5 0 0 1 3906.5,447 " fill="none" style="stroke:#000000;stroke-width:1.5;"/><line style="stroke:#000000;stroke-width:1.5;" x1="3904" x2="4086" y1="470.6094" y2="470.6094"/><text fill="#000000" font-family="sans-serif" font-size="14" font-weight="bold" lengthAdjust="spacing" textLength="169" x="3908" y="463.5332">com.welab.integral.filter</text></g><!--MD5=[cdf6bf119379342c10f65535b8d28ad9]
cluster com.welab.integral--><g id="cluster_com.welab.integral"><path d="M4310.5,129.5 L4443.5,129.5 A3.75,3.75 0 0 1 4446,132 L4453,153.1094 L4733.5,153.1094 A2.5,2.5 0 0 1 4736,155.6094 L4736,297 A2.5,2.5 0 0 1 4733.5,299.5 L4310.5,299.5 A2.5,2.5 0 0 1 4308,297 L4308,132 A2.5,2.5 0 0 1 4310.5,129.5 " fill="none" style="stroke:#000000;stroke-width:1.5;"/><line style="stroke:#000000;stroke-width:1.5;" x1="4308" x2="4453" y1="153.1094" y2="153.1094"/><text fill="#000000" font-family="sans-serif" font-size="14" font-weight="bold" lengthAdjust="spacing" textLength="132" x="4312" y="146.0332">com.welab.integral</text></g><!--MD5=[33e0c560e931438a2aeb566e37f930f0]
cluster com.welab.common.exception--><g id="cluster_com.welab.common.exception"><path d="M3013.5,164.5 L3225.5,164.5 A3.75,3.75 0 0 1 3228,167 L3235,188.1094 L3235.5,188.1094 A2.5,2.5 0 0 1 3238,190.6094 L3238,262 A2.5,2.5 0 0 1 3235.5,264.5 L3013.5,264.5 A2.5,2.5 0 0 1 3011,262 L3011,167 A2.5,2.5 0 0 1 3013.5,164.5 " fill="none" style="stroke:#000000;stroke-width:1.5;"/><line style="stroke:#000000;stroke-width:1.5;" x1="3011" x2="3235" y1="188.1094" y2="188.1094"/><text fill="#000000" font-family="sans-serif" font-size="14" font-weight="bold" lengthAdjust="spacing" textLength="211" x="3015" y="181.0332">com.welab.common.exception</text></g><!--MD5=[0d852700fdad35b7061d461d6907a324]
cluster java.io--><g id="cluster_java.io"><path d="M2239.5,164.5 L2286.5,164.5 A3.75,3.75 0 0 1 2289,167 L2296,188.1094 L2370.5,188.1094 A2.5,2.5 0 0 1 2373,190.6094 L2373,262 A2.5,2.5 0 0 1 2370.5,264.5 L2239.5,264.5 A2.5,2.5 0 0 1 2237,262 L2237,167 A2.5,2.5 0 0 1 2239.5,164.5 " fill="none" style="stroke:#000000;stroke-width:1.5;"/><line style="stroke:#000000;stroke-width:1.5;" x1="2237" x2="2296" y1="188.1094" y2="188.1094"/><text fill="#000000" font-family="sans-serif" font-size="14" font-weight="bold" lengthAdjust="spacing" textLength="46" x="2241" y="181.0332">java.io</text></g><!--MD5=[6e446a776690c24770e820099ff2c7a3]
cluster org.springframework.web.filter--><g id="cluster_org.springframework.web.filter"><path d="M4053.5,164.5 L4271.5,164.5 A3.75,3.75 0 0 1 4274,167 L4281,188.1094 L4281.5,188.1094 A2.5,2.5 0 0 1 4284,190.6094 L4284,262 A2.5,2.5 0 0 1 4281.5,264.5 L4053.5,264.5 A2.5,2.5 0 0 1 4051,262 L4051,167 A2.5,2.5 0 0 1 4053.5,164.5 " fill="none" style="stroke:#000000;stroke-width:1.5;"/><line style="stroke:#000000;stroke-width:1.5;" x1="4051" x2="4281" y1="188.1094" y2="188.1094"/><text fill="#000000" font-family="sans-serif" font-size="14" font-weight="bold" lengthAdjust="spacing" textLength="217" x="4055" y="181.0332">org.springframework.web.filter</text></g><!--MD5=[9afc4ef32cf8b2a1791cef4a353d6ed5]
cluster org.springframework.test.context.junit4--><g id="cluster_org.springframework.test.context.junit4"><path d="M1298.5,164.5 L1577.5,164.5 A3.75,3.75 0 0 1 1580,167 L1587,188.1094 L1587.5,188.1094 A2.5,2.5 0 0 1 1590,190.6094 L1590,262 A2.5,2.5 0 0 1 1587.5,264.5 L1298.5,264.5 A2.5,2.5 0 0 1 1296,262 L1296,167 A2.5,2.5 0 0 1 1298.5,164.5 " fill="none" style="stroke:#000000;stroke-width:1.5;"/><line style="stroke:#000000;stroke-width:1.5;" x1="1296" x2="1587" y1="188.1094" y2="188.1094"/><text fill="#000000" font-family="sans-serif" font-size="14" font-weight="bold" lengthAdjust="spacing" textLength="278" x="1300" y="181.0332">org.springframework.test.context.junit4</text></g><!--MD5=[297f29b2a0f1de78d321fba801a16b7c]
class com.welab.integral.service.UserIntegralService--><g id="elem_com.welab.integral.service.UserIntegralService"><rect codeLine="1" fill="#F1F1F1" height="118.4375" id="com.welab.integral.service.UserIntegralService" rx="2.5" ry="2.5" style="stroke:#181818;stroke-width:0.5;" width="321" x="699.5" y="165.5"/><ellipse cx="794.25" cy="181.5" fill="#ADD1B2" rx="11" ry="11" style="stroke:#181818;stroke-width:1.0;"/><path d="M797.0156,177.375 Q797.1719,177.1563 797.3594,177.0469 Q797.5469,176.9375 797.7656,176.9375 Q798.1406,176.9375 798.375,177.2031 Q798.6094,177.4531 798.6094,178.0625 L798.6094,179.5156 Q798.6094,180.125 798.375,180.3906 Q798.1406,180.6563 797.7656,180.6563 Q797.4219,180.6563 797.2188,180.4531 Q797.0156,180.2656 796.9063,179.75 Q796.8594,179.3906 796.6719,179.2031 Q796.3438,178.8281 795.7344,178.6094 Q795.125,178.3906 794.5,178.3906 Q793.7344,178.3906 793.0938,178.7188 Q792.4688,179.0469 791.9688,179.7969 Q791.4844,180.5469 791.4844,181.5781 L791.4844,182.6719 Q791.4844,183.9063 792.375,184.7344 Q793.2656,185.5469 794.8594,185.5469 Q795.7969,185.5469 796.4531,185.2969 Q796.8438,185.1406 797.2656,184.7031 Q797.5313,184.4375 797.6719,184.3594 Q797.8281,184.2813 798.0313,184.2813 Q798.3594,184.2813 798.6094,184.5469 Q798.875,184.7969 798.875,185.1406 Q798.875,185.4844 798.5313,185.8906 Q798.0313,186.4688 797.2344,186.7969 Q796.1563,187.25 794.8594,187.25 Q793.3438,187.25 792.1406,186.625 Q791.1563,186.125 790.4688,185.0625 Q789.7813,183.9844 789.7813,182.7031 L789.7813,181.5469 Q789.7813,180.2188 790.3906,179.0781 Q791.0156,177.9219 792.1094,177.3125 Q793.2031,176.6875 794.4375,176.6875 Q795.1719,176.6875 795.8125,176.8594 Q796.4688,177.0156 797.0156,177.375 Z " fill="#000000"/><text fill="#000000" font-family="sans-serif" font-size="14" lengthAdjust="spacing" textLength="123" x="814.75" y="187.2285">UserIntegralService</text><line style="stroke:#181818;stroke-width:0.5;" x1="700.5" x2="1019.5" y1="197.5" y2="197.5"/><rect fill="none" height="6" style="stroke:#C82930;stroke-width:1.0;" width="6" x="707.5" y="208.8047"/><text fill="#000000" font-family="sans-serif" font-size="14" lengthAdjust="spacing" textLength="89" x="719.5" y="216.0332">Logger logger</text><rect fill="none" height="6" style="stroke:#C82930;stroke-width:1.0;" width="6" x="707.5" y="226.4141"/><text fill="#000000" font-family="sans-serif" font-size="14" lengthAdjust="spacing" textLength="251" x="719.5" y="233.6426">UserIntegralMapper userIntegralMapper</text><line style="stroke:#181818;stroke-width:0.5;" x1="700.5" x2="1019.5" y1="240.7188" y2="240.7188"/><ellipse cx="710.5" cy="255.0234" fill="#84BE84" rx="3" ry="3" style="stroke:#038048;stroke-width:1.0;"/><text fill="#000000" font-family="sans-serif" font-size="14" lengthAdjust="spacing" textLength="274" x="719.5" y="259.252">UserIntegral getUserIntegralByUserId(Long)</text><ellipse cx="710.5" cy="272.6328" fill="#84BE84" rx="3" ry="3" style="stroke:#038048;stroke-width:1.0;"/><text fill="#000000" font-family="sans-serif" font-size="14" lengthAdjust="spacing" textLength="295" x="719.5" y="276.8613">Integer addOrUpdateUserIntegral(UserIntegral)</text></g><!--MD5=[0cdbdcd3ee5a221c0bcc3b9f98bb753a]
class com.welab.integral.service.UserIntegralDubboService--><g id="elem_com.welab.integral.service.UserIntegralDubboService"><rect codeLine="83" fill="#F1F1F1" height="136.0469" id="com.welab.integral.service.UserIntegralDubboService" rx="2.5" ry="2.5" style="stroke:#181818;stroke-width:0.5;" width="642" x="22" y="156.5"/><ellipse cx="255.75" cy="172.5" fill="#B4A7E5" rx="11" ry="11" style="stroke:#181818;stroke-width:1.0;"/><path d="M256.7031,169.1406 L256.7031,175.7969 L258.4219,175.7969 Q259.0313,175.7969 259.2969,176.0313 Q259.5625,176.2656 259.5625,176.6563 Q259.5625,177.0313 259.2969,177.2656 Q259.0313,177.5 258.4219,177.5 L253.2813,177.5 Q252.6719,177.5 252.4063,177.2656 Q252.1406,177.0313 252.1406,176.6406 Q252.1406,176.2656 252.4063,176.0313 Q252.6719,175.7969 253.2813,175.7969 L255,175.7969 L255,169.1406 L253.2813,169.1406 Q252.6719,169.1406 252.4063,168.9063 Q252.1406,168.6719 252.1406,168.2813 Q252.1406,167.9063 252.4063,167.6719 Q252.6719,167.4375 253.2813,167.4375 L258.4219,167.4375 Q259.0313,167.4375 259.2969,167.6719 Q259.5625,167.9063 259.5625,168.2813 Q259.5625,168.6719 259.2969,168.9063 Q259.0313,169.1406 258.4219,169.1406 L256.7031,169.1406 Z " fill="#000000"/><text fill="#000000" font-family="sans-serif" font-size="14" font-style="italic" lengthAdjust="spacing" textLength="166" x="276.25" y="178.2285">UserIntegralDubboService</text><line style="stroke:#181818;stroke-width:0.5;" x1="23" x2="663" y1="188.5" y2="188.5"/><line style="stroke:#181818;stroke-width:0.5;" x1="23" x2="663" y1="196.5" y2="196.5"/><polygon fill="#4177AF" points="33,206.8047,29,212.8047,37,212.8047" style="stroke:#1963A0;stroke-width:1.0;"/><text fill="#000000" font-family="sans-serif" font-size="14" lengthAdjust="spacing" textLength="253" x="42" y="215.0332">Integer getUserRemainingIntegral(Long)</text><polygon fill="#4177AF" points="33,224.4141,29,230.4141,37,230.4141" style="stroke:#1963A0;stroke-width:1.0;"/><text fill="#000000" font-family="sans-serif" font-size="14" lengthAdjust="spacing" textLength="288" x="42" y="232.6426">Integer getQuantityByEventType(Long,String)</text><polygon fill="#4177AF" points="33,242.0234,29,248.0234,37,248.0234" style="stroke:#1963A0;stroke-width:1.0;"/><text fill="#000000" font-family="sans-serif" font-size="14" lengthAdjust="spacing" textLength="258" x="42" y="250.252">void updateUserIntegral(UserIntegralDto)</text><polygon fill="#4177AF" points="33,259.6328,29,265.6328,37,265.6328" style="stroke:#1963A0;stroke-width:1.0;"/><text fill="#000000" font-family="sans-serif" font-size="14" lengthAdjust="spacing" textLength="616" x="42" y="267.8613">Response&lt;PageInfo&lt;UserIntegralTrack&gt;&gt; getPageUserIntegralTrackBy(UserIntegralTrackInfoDto)</text><polygon fill="#4177AF" points="33,277.2422,29,283.2422,37,283.2422" style="stroke:#1963A0;stroke-width:1.0;"/><text fill="#000000" font-family="sans-serif" font-size="14" lengthAdjust="spacing" textLength="486" x="42" y="285.4707">Response&lt;UserIntegralInfoVo&gt; getUserIntegralInfo(UserIntegralTrackInfoDto)</text></g><!--MD5=[a86a02d4b09b880936b77f4ebadfa666]
class com.welab.integral.common.Urls--><g id="elem_com.welab.integral.common.Urls"><rect codeLine="7" fill="#F1F1F1" height="100.8281" id="com.welab.integral.common.Urls" rx="2.5" ry="2.5" style="stroke:#181818;stroke-width:0.5;" width="154" x="1089" y="174"/><ellipse cx="1149.25" cy="190" fill="#B4A7E5" rx="11" ry="11" style="stroke:#181818;stroke-width:1.0;"/><path d="M1150.2031,186.6406 L1150.2031,193.2969 L1151.9219,193.2969 Q1152.5313,193.2969 1152.7969,193.5313 Q1153.0625,193.7656 1153.0625,194.1563 Q1153.0625,194.5313 1152.7969,194.7656 Q1152.5313,195 1151.9219,195 L1146.7813,195 Q1146.1719,195 1145.9063,194.7656 Q1145.6406,194.5313 1145.6406,194.1406 Q1145.6406,193.7656 1145.9063,193.5313 Q1146.1719,193.2969 1146.7813,193.2969 L1148.5,193.2969 L1148.5,186.6406 L1146.7813,186.6406 Q1146.1719,186.6406 1145.9063,186.4063 Q1145.6406,186.1719 1145.6406,185.7813 Q1145.6406,185.4063 1145.9063,185.1719 Q1146.1719,184.9375 1146.7813,184.9375 L1151.9219,184.9375 Q1152.5313,184.9375 1152.7969,185.1719 Q1153.0625,185.4063 1153.0625,185.7813 Q1153.0625,186.1719 1152.7969,186.4063 Q1152.5313,186.6406 1151.9219,186.6406 L1150.2031,186.6406 Z " fill="#000000"/><text fill="#000000" font-family="sans-serif" font-size="14" font-style="italic" lengthAdjust="spacing" textLength="25" x="1169.75" y="195.7285">Urls</text><line style="stroke:#181818;stroke-width:0.5;" x1="1090" x2="1242" y1="206" y2="206"/><polygon fill="none" points="1100,216.3047,1096,222.3047,1104,222.3047" style="stroke:#1963A0;stroke-width:1.0;"/><text fill="#000000" font-family="sans-serif" font-size="14" lengthAdjust="spacing" textLength="82" x="1109" y="224.5332">String ROOT</text><polygon fill="none" points="1100,233.9141,1096,239.9141,1104,239.9141" style="stroke:#1963A0;stroke-width:1.0;"/><text fill="#000000" font-family="sans-serif" font-size="14" lengthAdjust="spacing" textLength="128" x="1109" y="242.1426">String ROOT_DESC</text><polygon fill="none" points="1100,251.5234,1096,257.5234,1104,257.5234" style="stroke:#1963A0;stroke-width:1.0;"/><text fill="#000000" font-family="sans-serif" font-size="14" lengthAdjust="spacing" textLength="58" x="1109" y="259.752">String V1</text><line style="stroke:#181818;stroke-width:0.5;" x1="1090" x2="1242" y1="266.8281" y2="266.8281"/></g><!--MD5=[805395140158296a82777013dde190fe]
class com.welab.integral.test.UserIntegralDubboServiceTest--><g id="elem_com.welab.integral.test.UserIntegralDubboServiceTest"><rect codeLine="12" fill="#F1F1F1" height="100.8281" id="com.welab.integral.test.UserIntegralDubboServiceTest" rx="2.5" ry="2.5" style="stroke:#181818;stroke-width:0.5;" width="359" x="1256.5" y="810.5"/><ellipse cx="1335.25" cy="826.5" fill="#ADD1B2" rx="11" ry="11" style="stroke:#181818;stroke-width:1.0;"/><path d="M1338.0156,822.375 Q1338.1719,822.1563 1338.3594,822.0469 Q1338.5469,821.9375 1338.7656,821.9375 Q1339.1406,821.9375 1339.375,822.2031 Q1339.6094,822.4531 1339.6094,823.0625 L1339.6094,824.5156 Q1339.6094,825.125 1339.375,825.3906 Q1339.1406,825.6563 1338.7656,825.6563 Q1338.4219,825.6563 1338.2188,825.4531 Q1338.0156,825.2656 1337.9063,824.75 Q1337.8594,824.3906 1337.6719,824.2031 Q1337.3438,823.8281 1336.7344,823.6094 Q1336.125,823.3906 1335.5,823.3906 Q1334.7344,823.3906 1334.0938,823.7188 Q1333.4688,824.0469 1332.9688,824.7969 Q1332.4844,825.5469 1332.4844,826.5781 L1332.4844,827.6719 Q1332.4844,828.9063 1333.375,829.7344 Q1334.2656,830.5469 1335.8594,830.5469 Q1336.7969,830.5469 1337.4531,830.2969 Q1337.8438,830.1406 1338.2656,829.7031 Q1338.5313,829.4375 1338.6719,829.3594 Q1338.8281,829.2813 1339.0313,829.2813 Q1339.3594,829.2813 1339.6094,829.5469 Q1339.875,829.7969 1339.875,830.1406 Q1339.875,830.4844 1339.5313,830.8906 Q1339.0313,831.4688 1338.2344,831.7969 Q1337.1563,832.25 1335.8594,832.25 Q1334.3438,832.25 1333.1406,831.625 Q1332.1563,831.125 1331.4688,830.0625 Q1330.7813,828.9844 1330.7813,827.7031 L1330.7813,826.5469 Q1330.7813,825.2188 1331.3906,824.0781 Q1332.0156,822.9219 1333.1094,822.3125 Q1334.2031,821.6875 1335.4375,821.6875 Q1336.1719,821.6875 1336.8125,821.8594 Q1337.4688,822.0156 1338.0156,822.375 Z " fill="#000000"/><text fill="#000000" font-family="sans-serif" font-size="14" lengthAdjust="spacing" textLength="193" x="1355.75" y="832.2285">UserIntegralDubboServiceTest</text><line style="stroke:#181818;stroke-width:0.5;" x1="1257.5" x2="1614.5" y1="842.5" y2="842.5"/><rect fill="none" height="6" style="stroke:#C82930;stroke-width:1.0;" width="6" x="1264.5" y="853.8047"/><text fill="#000000" font-family="sans-serif" font-size="14" lengthAdjust="spacing" textLength="333" x="1276.5" y="861.0332">UserIntegralDubboService userIntegralDubboService</text><line style="stroke:#181818;stroke-width:0.5;" x1="1257.5" x2="1614.5" y1="868.1094" y2="868.1094"/><ellipse cx="1267.5" cy="882.4141" fill="#84BE84" rx="3" ry="3" style="stroke:#038048;stroke-width:1.0;"/><text fill="#000000" font-family="sans-serif" font-size="14" lengthAdjust="spacing" textLength="160" x="1276.5" y="886.6426">void updateUserIntegral()</text><ellipse cx="1267.5" cy="900.0234" fill="#84BE84" rx="3" ry="3" style="stroke:#038048;stroke-width:1.0;"/><text fill="#000000" font-family="sans-serif" font-size="14" lengthAdjust="spacing" textLength="159" x="1276.5" y="904.252">void getUserIntegralInfo()</text></g><!--MD5=[60004acff6faab83d14141bfdf4d5066]
class com.welab.integral.test.TempTest--><g id="elem_com.welab.integral.test.TempTest"><rect codeLine="17" fill="#F1F1F1" height="100.8281" id="com.welab.integral.test.TempTest" rx="2.5" ry="2.5" style="stroke:#181818;stroke-width:0.5;" width="294" x="1550" y="562"/><ellipse cx="1660.75" cy="578" fill="#ADD1B2" rx="11" ry="11" style="stroke:#181818;stroke-width:1.0;"/><path d="M1663.5156,573.875 Q1663.6719,573.6563 1663.8594,573.5469 Q1664.0469,573.4375 1664.2656,573.4375 Q1664.6406,573.4375 1664.875,573.7031 Q1665.1094,573.9531 1665.1094,574.5625 L1665.1094,576.0156 Q1665.1094,576.625 1664.875,576.8906 Q1664.6406,577.1563 1664.2656,577.1563 Q1663.9219,577.1563 1663.7188,576.9531 Q1663.5156,576.7656 1663.4063,576.25 Q1663.3594,575.8906 1663.1719,575.7031 Q1662.8438,575.3281 1662.2344,575.1094 Q1661.625,574.8906 1661,574.8906 Q1660.2344,574.8906 1659.5938,575.2188 Q1658.9688,575.5469 1658.4688,576.2969 Q1657.9844,577.0469 1657.9844,578.0781 L1657.9844,579.1719 Q1657.9844,580.4063 1658.875,581.2344 Q1659.7656,582.0469 1661.3594,582.0469 Q1662.2969,582.0469 1662.9531,581.7969 Q1663.3438,581.6406 1663.7656,581.2031 Q1664.0313,580.9375 1664.1719,580.8594 Q1664.3281,580.7813 1664.5313,580.7813 Q1664.8594,580.7813 1665.1094,581.0469 Q1665.375,581.2969 1665.375,581.6406 Q1665.375,581.9844 1665.0313,582.3906 Q1664.5313,582.9688 1663.7344,583.2969 Q1662.6563,583.75 1661.3594,583.75 Q1659.8438,583.75 1658.6406,583.125 Q1657.6563,582.625 1656.9688,581.5625 Q1656.2813,580.4844 1656.2813,579.2031 L1656.2813,578.0469 Q1656.2813,576.7188 1656.8906,575.5781 Q1657.5156,574.4219 1658.6094,573.8125 Q1659.7031,573.1875 1660.9375,573.1875 Q1661.6719,573.1875 1662.3125,573.3594 Q1662.9688,573.5156 1663.5156,573.875 Z " fill="#000000"/><text fill="#000000" font-family="sans-serif" font-size="14" lengthAdjust="spacing" textLength="64" x="1681.25" y="583.7285">TempTest</text><line style="stroke:#181818;stroke-width:0.5;" x1="1551" x2="1843" y1="594" y2="594"/><rect fill="none" height="6" style="stroke:#C82930;stroke-width:1.0;" width="6" x="1558" y="605.3047"/><text fill="#000000" font-family="sans-serif" font-size="14" lengthAdjust="spacing" textLength="268" x="1570" y="612.5332">DefaultConfigService defaultConfigService</text><line style="stroke:#181818;stroke-width:0.5;" x1="1551" x2="1843" y1="619.6094" y2="619.6094"/><ellipse cx="1561" cy="633.9141" fill="#84BE84" rx="3" ry="3" style="stroke:#038048;stroke-width:1.0;"/><text fill="#000000" font-family="sans-serif" font-size="14" lengthAdjust="spacing" textLength="69" x="1570" y="638.1426">void yaml()</text><ellipse cx="1561" cy="651.5234" fill="#84BE84" rx="3" ry="3" style="stroke:#038048;stroke-width:1.0;"/><text fill="#000000" font-family="sans-serif" font-size="14" lengthAdjust="spacing" textLength="77" x="1570" y="655.752">void yaml2()</text></g><!--MD5=[45b298d8bac962af6d1636bb25f77efe]
class com.welab.integral.test.ScaffoldTest--><g id="elem_com.welab.integral.test.ScaffoldTest"><rect codeLine="77" fill="#F1F1F1" height="118.4375" id="com.welab.integral.test.ScaffoldTest" rx="2.5" ry="2.5" style="stroke:#181818;stroke-width:0.5;" width="201" x="1650.5" y="802"/><ellipse cx="1707.25" cy="818" fill="#ADD1B2" rx="11" ry="11" style="stroke:#181818;stroke-width:1.0;"/><path d="M1710.0156,813.875 Q1710.1719,813.6563 1710.3594,813.5469 Q1710.5469,813.4375 1710.7656,813.4375 Q1711.1406,813.4375 1711.375,813.7031 Q1711.6094,813.9531 1711.6094,814.5625 L1711.6094,816.0156 Q1711.6094,816.625 1711.375,816.8906 Q1711.1406,817.1563 1710.7656,817.1563 Q1710.4219,817.1563 1710.2188,816.9531 Q1710.0156,816.7656 1709.9063,816.25 Q1709.8594,815.8906 1709.6719,815.7031 Q1709.3438,815.3281 1708.7344,815.1094 Q1708.125,814.8906 1707.5,814.8906 Q1706.7344,814.8906 1706.0938,815.2188 Q1705.4688,815.5469 1704.9688,816.2969 Q1704.4844,817.0469 1704.4844,818.0781 L1704.4844,819.1719 Q1704.4844,820.4063 1705.375,821.2344 Q1706.2656,822.0469 1707.8594,822.0469 Q1708.7969,822.0469 1709.4531,821.7969 Q1709.8438,821.6406 1710.2656,821.2031 Q1710.5313,820.9375 1710.6719,820.8594 Q1710.8281,820.7813 1711.0313,820.7813 Q1711.3594,820.7813 1711.6094,821.0469 Q1711.875,821.2969 1711.875,821.6406 Q1711.875,821.9844 1711.5313,822.3906 Q1711.0313,822.9688 1710.2344,823.2969 Q1709.1563,823.75 1707.8594,823.75 Q1706.3438,823.75 1705.1406,823.125 Q1704.1563,822.625 1703.4688,821.5625 Q1702.7813,820.4844 1702.7813,819.2031 L1702.7813,818.0469 Q1702.7813,816.7188 1703.3906,815.5781 Q1704.0156,814.4219 1705.1094,813.8125 Q1706.2031,813.1875 1707.4375,813.1875 Q1708.1719,813.1875 1708.8125,813.3594 Q1709.4688,813.5156 1710.0156,813.875 Z " fill="#000000"/><text fill="#000000" font-family="sans-serif" font-size="14" lengthAdjust="spacing" textLength="79" x="1727.75" y="823.7285">ScaffoldTest</text><line style="stroke:#181818;stroke-width:0.5;" x1="1651.5" x2="1850.5" y1="834" y2="834"/><rect fill="none" height="6" style="stroke:#C82930;stroke-width:1.0;" width="6" x="1658.5" y="845.3047"/><text fill="#000000" font-family="sans-serif" font-size="14" lengthAdjust="spacing" textLength="175" x="1670.5" y="852.5332">DefaultConfigService config</text><rect fill="none" height="6" style="stroke:#C82930;stroke-width:1.0;" width="6" x="1658.5" y="862.9141"/><text fill="#000000" font-family="sans-serif" font-size="14" lengthAdjust="spacing" textLength="161" x="1670.5" y="870.1426">String ZOOKEEPER_URL</text><line style="stroke:#181818;stroke-width:0.5;" x1="1651.5" x2="1850.5" y1="877.2188" y2="877.2188"/><ellipse cx="1661.5" cy="891.5234" fill="#84BE84" rx="3" ry="3" style="stroke:#038048;stroke-width:1.0;"/><text fill="#000000" font-family="sans-serif" font-size="14" lengthAdjust="spacing" textLength="71" x="1670.5" y="895.752">void test1()</text><ellipse cx="1661.5" cy="909.1328" fill="#84BE84" rx="3" ry="3" style="stroke:#038048;stroke-width:1.0;"/><text fill="#000000" font-family="sans-serif" font-size="14" lengthAdjust="spacing" textLength="75" x="1670.5" y="913.3613">void appId()</text></g><!--MD5=[e1af3a9db4c7bfea2e7efc7944043b50]
class com.welab.integral.test.SimpleTest--><g id="elem_com.welab.integral.test.SimpleTest"><rect codeLine="120" fill="#F1F1F1" height="65.6094" id="com.welab.integral.test.SimpleTest" rx="2.5" ry="2.5" style="stroke:#181818;stroke-width:0.5;" width="115" x="1385.5" y="579.5"/><ellipse cx="1406.35" cy="595.5" fill="#ADD1B2" rx="11" ry="11" style="stroke:#181818;stroke-width:1.0;"/><path d="M1409.1156,591.375 Q1409.2719,591.1563 1409.4594,591.0469 Q1409.6469,590.9375 1409.8656,590.9375 Q1410.2406,590.9375 1410.475,591.2031 Q1410.7094,591.4531 1410.7094,592.0625 L1410.7094,593.5156 Q1410.7094,594.125 1410.475,594.3906 Q1410.2406,594.6563 1409.8656,594.6563 Q1409.5219,594.6563 1409.3188,594.4531 Q1409.1156,594.2656 1409.0063,593.75 Q1408.9594,593.3906 1408.7719,593.2031 Q1408.4438,592.8281 1407.8344,592.6094 Q1407.225,592.3906 1406.6,592.3906 Q1405.8344,592.3906 1405.1938,592.7188 Q1404.5688,593.0469 1404.0688,593.7969 Q1403.5844,594.5469 1403.5844,595.5781 L1403.5844,596.6719 Q1403.5844,597.9063 1404.475,598.7344 Q1405.3656,599.5469 1406.9594,599.5469 Q1407.8969,599.5469 1408.5531,599.2969 Q1408.9438,599.1406 1409.3656,598.7031 Q1409.6313,598.4375 1409.7719,598.3594 Q1409.9281,598.2813 1410.1313,598.2813 Q1410.4594,598.2813 1410.7094,598.5469 Q1410.975,598.7969 1410.975,599.1406 Q1410.975,599.4844 1410.6313,599.8906 Q1410.1313,600.4688 1409.3344,600.7969 Q1408.2563,601.25 1406.9594,601.25 Q1405.4438,601.25 1404.2406,600.625 Q1403.2563,600.125 1402.5688,599.0625 Q1401.8813,597.9844 1401.8813,596.7031 L1401.8813,595.5469 Q1401.8813,594.2188 1402.4906,593.0781 Q1403.1156,591.9219 1404.2094,591.3125 Q1405.3031,590.6875 1406.5375,590.6875 Q1407.2719,590.6875 1407.9125,590.8594 Q1408.5688,591.0156 1409.1156,591.375 Z " fill="#000000"/><text fill="#000000" font-family="sans-serif" font-size="14" lengthAdjust="spacing" textLength="70" x="1421.65" y="601.2285">SimpleTest</text><line style="stroke:#181818;stroke-width:0.5;" x1="1386.5" x2="1499.5" y1="611.5" y2="611.5"/><polygon fill="none" points="1396.5,620.8047,1400.5,624.8047,1396.5,628.8047,1392.5,624.8047" style="stroke:#B38D22;stroke-width:1.0;"/><text fill="#000000" font-family="sans-serif" font-size="14" lengthAdjust="spacing" textLength="89" x="1405.5" y="630.0332">Logger logger</text><line style="stroke:#181818;stroke-width:0.5;" x1="1386.5" x2="1499.5" y1="637.1094" y2="637.1094"/></g><!--MD5=[d7625696adfda6b9b525fb97e22986d1]
class com.welab.integral.config.Swagger2Config--><g id="elem_com.welab.integral.config.Swagger2Config"><rect codeLine="22" fill="#F1F1F1" height="83.2188" id="com.welab.integral.config.Swagger2Config" rx="2.5" ry="2.5" style="stroke:#181818;stroke-width:0.5;" width="173" x="1766.5" y="183"/><ellipse cx="1798.15" cy="199" fill="#ADD1B2" rx="11" ry="11" style="stroke:#181818;stroke-width:1.0;"/><path d="M1800.9156,194.875 Q1801.0719,194.6563 1801.2594,194.5469 Q1801.4469,194.4375 1801.6656,194.4375 Q1802.0406,194.4375 1802.275,194.7031 Q1802.5094,194.9531 1802.5094,195.5625 L1802.5094,197.0156 Q1802.5094,197.625 1802.275,197.8906 Q1802.0406,198.1563 1801.6656,198.1563 Q1801.3219,198.1563 1801.1188,197.9531 Q1800.9156,197.7656 1800.8063,197.25 Q1800.7594,196.8906 1800.5719,196.7031 Q1800.2438,196.3281 1799.6344,196.1094 Q1799.025,195.8906 1798.4,195.8906 Q1797.6344,195.8906 1796.9938,196.2188 Q1796.3688,196.5469 1795.8688,197.2969 Q1795.3844,198.0469 1795.3844,199.0781 L1795.3844,200.1719 Q1795.3844,201.4063 1796.275,202.2344 Q1797.1656,203.0469 1798.7594,203.0469 Q1799.6969,203.0469 1800.3531,202.7969 Q1800.7438,202.6406 1801.1656,202.2031 Q1801.4313,201.9375 1801.5719,201.8594 Q1801.7281,201.7813 1801.9313,201.7813 Q1802.2594,201.7813 1802.5094,202.0469 Q1802.775,202.2969 1802.775,202.6406 Q1802.775,202.9844 1802.4313,203.3906 Q1801.9313,203.9688 1801.1344,204.2969 Q1800.0563,204.75 1798.7594,204.75 Q1797.2438,204.75 1796.0406,204.125 Q1795.0563,203.625 1794.3688,202.5625 Q1793.6813,201.4844 1793.6813,200.2031 L1793.6813,199.0469 Q1793.6813,197.7188 1794.2906,196.5781 Q1794.9156,195.4219 1796.0094,194.8125 Q1797.1031,194.1875 1798.3375,194.1875 Q1799.0719,194.1875 1799.7125,194.3594 Q1800.3688,194.5156 1800.9156,194.875 Z " fill="#000000"/><text fill="#000000" font-family="sans-serif" font-size="14" lengthAdjust="spacing" textLength="104" x="1815.85" y="204.7285">Swagger2Config</text><line style="stroke:#181818;stroke-width:0.5;" x1="1767.5" x2="1938.5" y1="215" y2="215"/><line style="stroke:#181818;stroke-width:0.5;" x1="1767.5" x2="1938.5" y1="223" y2="223"/><ellipse cx="1777.5" cy="237.3047" fill="#84BE84" rx="3" ry="3" style="stroke:#038048;stroke-width:1.0;"/><text fill="#000000" font-family="sans-serif" font-size="14" lengthAdjust="spacing" textLength="147" x="1786.5" y="241.5332">Docket createRestApi()</text><rect fill="#F24D5C" height="6" style="stroke:#C82930;stroke-width:1.0;" width="6" x="1774.5" y="251.9141"/><text fill="#000000" font-family="sans-serif" font-size="14" lengthAdjust="spacing" textLength="99" x="1786.5" y="259.1426">ApiInfo apiInfo()</text></g><!--MD5=[8d997917be7ac7450095a9f34307348f]
class com.welab.integral.dto.UserIntegralTrackInfoDto--><g id="elem_com.welab.integral.dto.UserIntegralTrackInfoDto"><rect codeLine="26" fill="#F1F1F1" height="83.2188" id="com.welab.integral.dto.UserIntegralTrackInfoDto" rx="2.5" ry="2.5" style="stroke:#181818;stroke-width:0.5;" width="189" x="1908.5" y="819.5"/><ellipse cx="1923.5" cy="835.5" fill="#ADD1B2" rx="11" ry="11" style="stroke:#181818;stroke-width:1.0;"/><path d="M1926.2656,831.375 Q1926.4219,831.1563 1926.6094,831.0469 Q1926.7969,830.9375 1927.0156,830.9375 Q1927.3906,830.9375 1927.625,831.2031 Q1927.8594,831.4531 1927.8594,832.0625 L1927.8594,833.5156 Q1927.8594,834.125 1927.625,834.3906 Q1927.3906,834.6563 1927.0156,834.6563 Q1926.6719,834.6563 1926.4688,834.4531 Q1926.2656,834.2656 1926.1563,833.75 Q1926.1094,833.3906 1925.9219,833.2031 Q1925.5938,832.8281 1924.9844,832.6094 Q1924.375,832.3906 1923.75,832.3906 Q1922.9844,832.3906 1922.3438,832.7188 Q1921.7188,833.0469 1921.2188,833.7969 Q1920.7344,834.5469 1920.7344,835.5781 L1920.7344,836.6719 Q1920.7344,837.9063 1921.625,838.7344 Q1922.5156,839.5469 1924.1094,839.5469 Q1925.0469,839.5469 1925.7031,839.2969 Q1926.0938,839.1406 1926.5156,838.7031 Q1926.7813,838.4375 1926.9219,838.3594 Q1927.0781,838.2813 1927.2813,838.2813 Q1927.6094,838.2813 1927.8594,838.5469 Q1928.125,838.7969 1928.125,839.1406 Q1928.125,839.4844 1927.7813,839.8906 Q1927.2813,840.4688 1926.4844,840.7969 Q1925.4063,841.25 1924.1094,841.25 Q1922.5938,841.25 1921.3906,840.625 Q1920.4063,840.125 1919.7188,839.0625 Q1919.0313,837.9844 1919.0313,836.7031 L1919.0313,835.5469 Q1919.0313,834.2188 1919.6406,833.0781 Q1920.2656,831.9219 1921.3594,831.3125 Q1922.4531,830.6875 1923.6875,830.6875 Q1924.4219,830.6875 1925.0625,830.8594 Q1925.7188,831.0156 1926.2656,831.375 Z " fill="#000000"/><text fill="#000000" font-family="sans-serif" font-size="14" lengthAdjust="spacing" textLength="157" x="1937.5" y="841.2285">UserIntegralTrackInfoDto</text><line style="stroke:#181818;stroke-width:0.5;" x1="1909.5" x2="2096.5" y1="851.5" y2="851.5"/><rect fill="none" height="6" style="stroke:#C82930;stroke-width:1.0;" width="6" x="1916.5" y="862.8047"/><text fill="#000000" font-family="sans-serif" font-size="14" lengthAdjust="spacing" textLength="75" x="1928.5" y="870.0332">Long userId</text><rect fill="none" height="6" style="stroke:#C82930;stroke-width:1.0;" width="6" x="1916.5" y="880.4141"/><text fill="#000000" font-family="sans-serif" font-size="14" lengthAdjust="spacing" textLength="108" x="1928.5" y="887.6426">String eventType</text><line style="stroke:#181818;stroke-width:0.5;" x1="1909.5" x2="2096.5" y1="894.7188" y2="894.7188"/></g><!--MD5=[712443dd66fb001fc0150825acdfa57e]
class com.welab.integral.dto.UserIntegralDto--><g id="elem_com.welab.integral.dto.UserIntegralDto"><rect codeLine="65" fill="#F1F1F1" height="136.0469" id="com.welab.integral.dto.UserIntegralDto" rx="2.5" ry="2.5" style="stroke:#181818;stroke-width:0.5;" width="161" x="2104.5" y="544.5"/><ellipse cx="2133.45" cy="560.5" fill="#ADD1B2" rx="11" ry="11" style="stroke:#181818;stroke-width:1.0;"/><path d="M2136.2156,556.375 Q2136.3719,556.1563 2136.5594,556.0469 Q2136.7469,555.9375 2136.9656,555.9375 Q2137.3406,555.9375 2137.575,556.2031 Q2137.8094,556.4531 2137.8094,557.0625 L2137.8094,558.5156 Q2137.8094,559.125 2137.575,559.3906 Q2137.3406,559.6563 2136.9656,559.6563 Q2136.6219,559.6563 2136.4188,559.4531 Q2136.2156,559.2656 2136.1063,558.75 Q2136.0594,558.3906 2135.8719,558.2031 Q2135.5438,557.8281 2134.9344,557.6094 Q2134.325,557.3906 2133.7,557.3906 Q2132.9344,557.3906 2132.2938,557.7188 Q2131.6688,558.0469 2131.1688,558.7969 Q2130.6844,559.5469 2130.6844,560.5781 L2130.6844,561.6719 Q2130.6844,562.9063 2131.575,563.7344 Q2132.4656,564.5469 2134.0594,564.5469 Q2134.9969,564.5469 2135.6531,564.2969 Q2136.0438,564.1406 2136.4656,563.7031 Q2136.7313,563.4375 2136.8719,563.3594 Q2137.0281,563.2813 2137.2313,563.2813 Q2137.5594,563.2813 2137.8094,563.5469 Q2138.075,563.7969 2138.075,564.1406 Q2138.075,564.4844 2137.7313,564.8906 Q2137.2313,565.4688 2136.4344,565.7969 Q2135.3563,566.25 2134.0594,566.25 Q2132.5438,566.25 2131.3406,565.625 Q2130.3563,565.125 2129.6688,564.0625 Q2128.9813,562.9844 2128.9813,561.7031 L2128.9813,560.5469 Q2128.9813,559.2188 2129.5906,558.0781 Q2130.2156,556.9219 2131.3094,556.3125 Q2132.4031,555.6875 2133.6375,555.6875 Q2134.3719,555.6875 2135.0125,555.8594 Q2135.6688,556.0156 2136.2156,556.375 Z " fill="#000000"/><text fill="#000000" font-family="sans-serif" font-size="14" lengthAdjust="spacing" textLength="98" x="2150.55" y="566.2285">UserIntegralDto</text><line style="stroke:#181818;stroke-width:0.5;" x1="2105.5" x2="2264.5" y1="576.5" y2="576.5"/><rect fill="none" height="6" style="stroke:#C82930;stroke-width:1.0;" width="6" x="2112.5" y="587.8047"/><text fill="#000000" font-family="sans-serif" font-size="14" lengthAdjust="spacing" text-decoration="underline" textLength="135" x="2124.5" y="595.0332">long serialVersionUID</text><rect fill="none" height="6" style="stroke:#C82930;stroke-width:1.0;" width="6" x="2112.5" y="605.4141"/><text fill="#000000" font-family="sans-serif" font-size="14" lengthAdjust="spacing" textLength="75" x="2124.5" y="612.6426">Long userId</text><rect fill="none" height="6" style="stroke:#C82930;stroke-width:1.0;" width="6" x="2112.5" y="623.0234"/><text fill="#000000" font-family="sans-serif" font-size="14" lengthAdjust="spacing" textLength="108" x="2124.5" y="630.252">String eventType</text><rect fill="none" height="6" style="stroke:#C82930;stroke-width:1.0;" width="6" x="2112.5" y="640.6328"/><text fill="#000000" font-family="sans-serif" font-size="14" lengthAdjust="spacing" textLength="95" x="2124.5" y="647.8613">Integer integral</text><rect fill="none" height="6" style="stroke:#C82930;stroke-width:1.0;" width="6" x="2112.5" y="658.2422"/><text fill="#000000" font-family="sans-serif" font-size="14" lengthAdjust="spacing" textLength="85" x="2124.5" y="665.4707">String remark</text><line style="stroke:#181818;stroke-width:0.5;" x1="2105.5" x2="2264.5" y1="672.5469" y2="672.5469"/></g><!--MD5=[8badef463c83bfd1c4ca4df06cf7c032]
class com.welab.integral.dto.PageInfoDto--><g id="elem_com.welab.integral.dto.PageInfoDto"><rect codeLine="123" fill="#F1F1F1" height="100.8281" id="com.welab.integral.dto.PageInfoDto" rx="2.5" ry="2.5" style="stroke:#181818;stroke-width:0.5;" width="161" x="1908.5" y="562"/><ellipse cx="1946.45" cy="578" fill="#ADD1B2" rx="11" ry="11" style="stroke:#181818;stroke-width:1.0;"/><path d="M1949.2156,573.875 Q1949.3719,573.6563 1949.5594,573.5469 Q1949.7469,573.4375 1949.9656,573.4375 Q1950.3406,573.4375 1950.575,573.7031 Q1950.8094,573.9531 1950.8094,574.5625 L1950.8094,576.0156 Q1950.8094,576.625 1950.575,576.8906 Q1950.3406,577.1563 1949.9656,577.1563 Q1949.6219,577.1563 1949.4188,576.9531 Q1949.2156,576.7656 1949.1063,576.25 Q1949.0594,575.8906 1948.8719,575.7031 Q1948.5438,575.3281 1947.9344,575.1094 Q1947.325,574.8906 1946.7,574.8906 Q1945.9344,574.8906 1945.2938,575.2188 Q1944.6688,575.5469 1944.1688,576.2969 Q1943.6844,577.0469 1943.6844,578.0781 L1943.6844,579.1719 Q1943.6844,580.4063 1944.575,581.2344 Q1945.4656,582.0469 1947.0594,582.0469 Q1947.9969,582.0469 1948.6531,581.7969 Q1949.0438,581.6406 1949.4656,581.2031 Q1949.7313,580.9375 1949.8719,580.8594 Q1950.0281,580.7813 1950.2313,580.7813 Q1950.5594,580.7813 1950.8094,581.0469 Q1951.075,581.2969 1951.075,581.6406 Q1951.075,581.9844 1950.7313,582.3906 Q1950.2313,582.9688 1949.4344,583.2969 Q1948.3563,583.75 1947.0594,583.75 Q1945.5438,583.75 1944.3406,583.125 Q1943.3563,582.625 1942.6688,581.5625 Q1941.9813,580.4844 1941.9813,579.2031 L1941.9813,578.0469 Q1941.9813,576.7188 1942.5906,575.5781 Q1943.2156,574.4219 1944.3094,573.8125 Q1945.4031,573.1875 1946.6375,573.1875 Q1947.3719,573.1875 1948.0125,573.3594 Q1948.6688,573.5156 1949.2156,573.875 Z " fill="#000000"/><text fill="#000000" font-family="sans-serif" font-size="14" lengthAdjust="spacing" textLength="78" x="1965.55" y="583.7285">PageInfoDto</text><line style="stroke:#181818;stroke-width:0.5;" x1="1909.5" x2="2068.5" y1="594" y2="594"/><rect fill="none" height="6" style="stroke:#C82930;stroke-width:1.0;" width="6" x="1916.5" y="605.3047"/><text fill="#000000" font-family="sans-serif" font-size="14" lengthAdjust="spacing" text-decoration="underline" textLength="135" x="1928.5" y="612.5332">long serialVersionUID</text><polygon fill="none" points="1919.5,620.9141,1923.5,624.9141,1919.5,628.9141,1915.5,624.9141" style="stroke:#B38D22;stroke-width:1.0;"/><text fill="#000000" font-family="sans-serif" font-size="14" lengthAdjust="spacing" textLength="108" x="1928.5" y="630.1426">Integer pageNum</text><polygon fill="none" points="1919.5,638.5234,1923.5,642.5234,1919.5,646.5234,1915.5,642.5234" style="stroke:#B38D22;stroke-width:1.0;"/><text fill="#000000" font-family="sans-serif" font-size="14" lengthAdjust="spacing" textLength="106" x="1928.5" y="647.752">Integer pageSize</text><line style="stroke:#181818;stroke-width:0.5;" x1="1909.5" x2="2068.5" y1="654.8281" y2="654.8281"/></g><!--MD5=[c4fa6913d95a24ab3aaf9691a17082aa]
class com.welab.integral.service.impl.UserIntegralDubboServiceImpl--><g id="elem_com.welab.integral.service.impl.UserIntegralDubboServiceImpl"><rect codeLine="30" fill="#F1F1F1" height="188.875" id="com.welab.integral.service.impl.UserIntegralDubboServiceImpl" rx="2.5" ry="2.5" style="stroke:#181818;stroke-width:0.5;" width="642" x="22" y="518"/><ellipse cx="243.75" cy="534" fill="#ADD1B2" rx="11" ry="11" style="stroke:#181818;stroke-width:1.0;"/><path d="M246.5156,529.875 Q246.6719,529.6563 246.8594,529.5469 Q247.0469,529.4375 247.2656,529.4375 Q247.6406,529.4375 247.875,529.7031 Q248.1094,529.9531 248.1094,530.5625 L248.1094,532.0156 Q248.1094,532.625 247.875,532.8906 Q247.6406,533.1563 247.2656,533.1563 Q246.9219,533.1563 246.7188,532.9531 Q246.5156,532.7656 246.4063,532.25 Q246.3594,531.8906 246.1719,531.7031 Q245.8438,531.3281 245.2344,531.1094 Q244.625,530.8906 244,530.8906 Q243.2344,530.8906 242.5938,531.2188 Q241.9688,531.5469 241.4688,532.2969 Q240.9844,533.0469 240.9844,534.0781 L240.9844,535.1719 Q240.9844,536.4063 241.875,537.2344 Q242.7656,538.0469 244.3594,538.0469 Q245.2969,538.0469 245.9531,537.7969 Q246.3438,537.6406 246.7656,537.2031 Q247.0313,536.9375 247.1719,536.8594 Q247.3281,536.7813 247.5313,536.7813 Q247.8594,536.7813 248.1094,537.0469 Q248.375,537.2969 248.375,537.6406 Q248.375,537.9844 248.0313,538.3906 Q247.5313,538.9688 246.7344,539.2969 Q245.6563,539.75 244.3594,539.75 Q242.8438,539.75 241.6406,539.125 Q240.6563,538.625 239.9688,537.5625 Q239.2813,536.4844 239.2813,535.2031 L239.2813,534.0469 Q239.2813,532.7188 239.8906,531.5781 Q240.5156,530.4219 241.6094,529.8125 Q242.7031,529.1875 243.9375,529.1875 Q244.6719,529.1875 245.3125,529.3594 Q245.9688,529.5156 246.5156,529.875 Z " fill="#000000"/><text fill="#000000" font-family="sans-serif" font-size="14" lengthAdjust="spacing" textLength="190" x="264.25" y="539.7285">UserIntegralDubboServiceImpl</text><line style="stroke:#181818;stroke-width:0.5;" x1="23" x2="663" y1="550" y2="550"/><rect fill="none" height="6" style="stroke:#C82930;stroke-width:1.0;" width="6" x="30" y="561.3047"/><text fill="#000000" font-family="sans-serif" font-size="14" lengthAdjust="spacing" textLength="89" x="42" y="568.5332">Logger logger</text><rect fill="none" height="6" style="stroke:#C82930;stroke-width:1.0;" width="6" x="30" y="578.9141"/><text fill="#000000" font-family="sans-serif" font-size="14" lengthAdjust="spacing" textLength="249" x="42" y="586.1426">UserIntegralService userIntegralService</text><rect fill="none" height="6" style="stroke:#C82930;stroke-width:1.0;" width="6" x="30" y="596.5234"/><text fill="#000000" font-family="sans-serif" font-size="14" lengthAdjust="spacing" textLength="323" x="42" y="603.752">UserIntegralTrackMapper userIntegralTrackMapper</text><line style="stroke:#181818;stroke-width:0.5;" x1="23" x2="663" y1="610.8281" y2="610.8281"/><ellipse cx="33" cy="625.1328" fill="#84BE84" rx="3" ry="3" style="stroke:#038048;stroke-width:1.0;"/><text fill="#000000" font-family="sans-serif" font-size="14" lengthAdjust="spacing" textLength="253" x="42" y="629.3613">Integer getUserRemainingIntegral(Long)</text><ellipse cx="33" cy="642.7422" fill="#84BE84" rx="3" ry="3" style="stroke:#038048;stroke-width:1.0;"/><text fill="#000000" font-family="sans-serif" font-size="14" lengthAdjust="spacing" textLength="288" x="42" y="646.9707">Integer getQuantityByEventType(Long,String)</text><ellipse cx="33" cy="660.3516" fill="#84BE84" rx="3" ry="3" style="stroke:#038048;stroke-width:1.0;"/><text fill="#000000" font-family="sans-serif" font-size="14" lengthAdjust="spacing" textLength="616" x="42" y="664.5801">Response&lt;PageInfo&lt;UserIntegralTrack&gt;&gt; getPageUserIntegralTrackBy(UserIntegralTrackInfoDto)</text><ellipse cx="33" cy="677.9609" fill="#84BE84" rx="3" ry="3" style="stroke:#038048;stroke-width:1.0;"/><text fill="#000000" font-family="sans-serif" font-size="14" lengthAdjust="spacing" textLength="486" x="42" y="682.1895">Response&lt;UserIntegralInfoVo&gt; getUserIntegralInfo(UserIntegralTrackInfoDto)</text><ellipse cx="33" cy="695.5703" fill="#84BE84" rx="3" ry="3" style="stroke:#038048;stroke-width:1.0;"/><text fill="#000000" font-family="sans-serif" font-size="14" lengthAdjust="spacing" textLength="258" x="42" y="699.7988">void updateUserIntegral(UserIntegralDto)</text></g><!--MD5=[e17a8335033a4cdee0de397735c4c807]
class com.welab.integral.model.UserIntegral--><g id="elem_com.welab.integral.model.UserIntegral"><rect codeLine="40" fill="#F1F1F1" height="364.9688" id="com.welab.integral.model.UserIntegral" rx="2.5" ry="2.5" style="stroke:#181818;stroke-width:0.5;" width="207" x="2653.5" y="42"/><ellipse cx="2714.75" cy="58" fill="#ADD1B2" rx="11" ry="11" style="stroke:#181818;stroke-width:1.0;"/><path d="M2717.5156,53.875 Q2717.6719,53.6563 2717.8594,53.5469 Q2718.0469,53.4375 2718.2656,53.4375 Q2718.6406,53.4375 2718.875,53.7031 Q2719.1094,53.9531 2719.1094,54.5625 L2719.1094,56.0156 Q2719.1094,56.625 2718.875,56.8906 Q2718.6406,57.1563 2718.2656,57.1563 Q2717.9219,57.1563 2717.7188,56.9531 Q2717.5156,56.7656 2717.4063,56.25 Q2717.3594,55.8906 2717.1719,55.7031 Q2716.8438,55.3281 2716.2344,55.1094 Q2715.625,54.8906 2715,54.8906 Q2714.2344,54.8906 2713.5938,55.2188 Q2712.9688,55.5469 2712.4688,56.2969 Q2711.9844,57.0469 2711.9844,58.0781 L2711.9844,59.1719 Q2711.9844,60.4063 2712.875,61.2344 Q2713.7656,62.0469 2715.3594,62.0469 Q2716.2969,62.0469 2716.9531,61.7969 Q2717.3438,61.6406 2717.7656,61.2031 Q2718.0313,60.9375 2718.1719,60.8594 Q2718.3281,60.7813 2718.5313,60.7813 Q2718.8594,60.7813 2719.1094,61.0469 Q2719.375,61.2969 2719.375,61.6406 Q2719.375,61.9844 2719.0313,62.3906 Q2718.5313,62.9688 2717.7344,63.2969 Q2716.6563,63.75 2715.3594,63.75 Q2713.8438,63.75 2712.6406,63.125 Q2711.6563,62.625 2710.9688,61.5625 Q2710.2813,60.4844 2710.2813,59.2031 L2710.2813,58.0469 Q2710.2813,56.7188 2710.8906,55.5781 Q2711.5156,54.4219 2712.6094,53.8125 Q2713.7031,53.1875 2714.9375,53.1875 Q2715.6719,53.1875 2716.3125,53.3594 Q2716.9688,53.5156 2717.5156,53.875 Z " fill="#000000"/><text fill="#000000" font-family="sans-serif" font-size="14" lengthAdjust="spacing" textLength="76" x="2735.25" y="63.7285">UserIntegral</text><line style="stroke:#181818;stroke-width:0.5;" x1="2654.5" x2="2859.5" y1="74" y2="74"/><rect fill="none" height="6" style="stroke:#C82930;stroke-width:1.0;" width="6" x="2661.5" y="85.3047"/><text fill="#000000" font-family="sans-serif" font-size="14" lengthAdjust="spacing" textLength="47" x="2673.5" y="92.5332">Long id</text><rect fill="none" height="6" style="stroke:#C82930;stroke-width:1.0;" width="6" x="2661.5" y="102.9141"/><text fill="#000000" font-family="sans-serif" font-size="14" lengthAdjust="spacing" textLength="75" x="2673.5" y="110.1426">Long userId</text><rect fill="none" height="6" style="stroke:#C82930;stroke-width:1.0;" width="6" x="2661.5" y="120.5234"/><text fill="#000000" font-family="sans-serif" font-size="14" lengthAdjust="spacing" textLength="95" x="2673.5" y="127.752">Integer integral</text><rect fill="none" height="6" style="stroke:#C82930;stroke-width:1.0;" width="6" x="2661.5" y="138.1328"/><text fill="#000000" font-family="sans-serif" font-size="14" lengthAdjust="spacing" textLength="95" x="2673.5" y="145.3613">Date createdAt</text><rect fill="none" height="6" style="stroke:#C82930;stroke-width:1.0;" width="6" x="2661.5" y="155.7422"/><text fill="#000000" font-family="sans-serif" font-size="14" lengthAdjust="spacing" textLength="99" x="2673.5" y="162.9707">Date updatedAt</text><rect fill="none" height="6" style="stroke:#C82930;stroke-width:1.0;" width="6" x="2661.5" y="173.3516"/><text fill="#000000" font-family="sans-serif" font-size="14" lengthAdjust="spacing" textLength="121" x="2673.5" y="180.5801">Integer lockVersion</text><line style="stroke:#181818;stroke-width:0.5;" x1="2654.5" x2="2859.5" y1="187.6563" y2="187.6563"/><ellipse cx="2664.5" cy="201.9609" fill="#84BE84" rx="3" ry="3" style="stroke:#038048;stroke-width:1.0;"/><text fill="#000000" font-family="sans-serif" font-size="14" lengthAdjust="spacing" textLength="77" x="2673.5" y="206.1895">Long getId()</text><ellipse cx="2664.5" cy="219.5703" fill="#84BE84" rx="3" ry="3" style="stroke:#038048;stroke-width:1.0;"/><text fill="#000000" font-family="sans-serif" font-size="14" lengthAdjust="spacing" textLength="102" x="2673.5" y="223.7988">void setId(Long)</text><ellipse cx="2664.5" cy="237.1797" fill="#84BE84" rx="3" ry="3" style="stroke:#038048;stroke-width:1.0;"/><text fill="#000000" font-family="sans-serif" font-size="14" lengthAdjust="spacing" textLength="106" x="2673.5" y="241.4082">Long getUserId()</text><ellipse cx="2664.5" cy="254.7891" fill="#84BE84" rx="3" ry="3" style="stroke:#038048;stroke-width:1.0;"/><text fill="#000000" font-family="sans-serif" font-size="14" lengthAdjust="spacing" textLength="131" x="2673.5" y="259.0176">void setUserId(Long)</text><ellipse cx="2664.5" cy="272.3984" fill="#84BE84" rx="3" ry="3" style="stroke:#038048;stroke-width:1.0;"/><text fill="#000000" font-family="sans-serif" font-size="14" lengthAdjust="spacing" textLength="125" x="2673.5" y="276.627">Integer getIntegral()</text><ellipse cx="2664.5" cy="290.0078" fill="#84BE84" rx="3" ry="3" style="stroke:#038048;stroke-width:1.0;"/><text fill="#000000" font-family="sans-serif" font-size="14" lengthAdjust="spacing" textLength="150" x="2673.5" y="294.2363">void setIntegral(Integer)</text><ellipse cx="2664.5" cy="307.6172" fill="#84BE84" rx="3" ry="3" style="stroke:#038048;stroke-width:1.0;"/><text fill="#000000" font-family="sans-serif" font-size="14" lengthAdjust="spacing" textLength="128" x="2673.5" y="311.8457">Date getCreatedAt()</text><ellipse cx="2664.5" cy="325.2266" fill="#84BE84" rx="3" ry="3" style="stroke:#038048;stroke-width:1.0;"/><text fill="#000000" font-family="sans-serif" font-size="14" lengthAdjust="spacing" textLength="153" x="2673.5" y="329.4551">void setCreatedAt(Date)</text><ellipse cx="2664.5" cy="342.8359" fill="#84BE84" rx="3" ry="3" style="stroke:#038048;stroke-width:1.0;"/><text fill="#000000" font-family="sans-serif" font-size="14" lengthAdjust="spacing" textLength="130" x="2673.5" y="347.0645">Date getUpdatedAt()</text><ellipse cx="2664.5" cy="360.4453" fill="#84BE84" rx="3" ry="3" style="stroke:#038048;stroke-width:1.0;"/><text fill="#000000" font-family="sans-serif" font-size="14" lengthAdjust="spacing" textLength="155" x="2673.5" y="364.6738">void setUpdatedAt(Date)</text><ellipse cx="2664.5" cy="378.0547" fill="#84BE84" rx="3" ry="3" style="stroke:#038048;stroke-width:1.0;"/><text fill="#000000" font-family="sans-serif" font-size="14" lengthAdjust="spacing" textLength="156" x="2673.5" y="382.2832">Integer getLockVersion()</text><ellipse cx="2664.5" cy="395.6641" fill="#84BE84" rx="3" ry="3" style="stroke:#038048;stroke-width:1.0;"/><text fill="#000000" font-family="sans-serif" font-size="14" lengthAdjust="spacing" textLength="181" x="2673.5" y="399.8926">void setLockVersion(Integer)</text></g><!--MD5=[3ef34e71e0443409bab3cba8cabda538]
class com.welab.integral.exception.IntegralException--><g id="elem_com.welab.integral.exception.IntegralException"><rect codeLine="60" fill="#F1F1F1" height="100.8281" id="com.welab.integral.exception.IntegralException" rx="2.5" ry="2.5" style="stroke:#181818;stroke-width:0.5;" width="292" x="2978" y="562"/><ellipse cx="3065.75" cy="578" fill="#ADD1B2" rx="11" ry="11" style="stroke:#181818;stroke-width:1.0;"/><path d="M3068.5156,573.875 Q3068.6719,573.6563 3068.8594,573.5469 Q3069.0469,573.4375 3069.2656,573.4375 Q3069.6406,573.4375 3069.875,573.7031 Q3070.1094,573.9531 3070.1094,574.5625 L3070.1094,576.0156 Q3070.1094,576.625 3069.875,576.8906 Q3069.6406,577.1563 3069.2656,577.1563 Q3068.9219,577.1563 3068.7188,576.9531 Q3068.5156,576.7656 3068.4063,576.25 Q3068.3594,575.8906 3068.1719,575.7031 Q3067.8438,575.3281 3067.2344,575.1094 Q3066.625,574.8906 3066,574.8906 Q3065.2344,574.8906 3064.5938,575.2188 Q3063.9688,575.5469 3063.4688,576.2969 Q3062.9844,577.0469 3062.9844,578.0781 L3062.9844,579.1719 Q3062.9844,580.4063 3063.875,581.2344 Q3064.7656,582.0469 3066.3594,582.0469 Q3067.2969,582.0469 3067.9531,581.7969 Q3068.3438,581.6406 3068.7656,581.2031 Q3069.0313,580.9375 3069.1719,580.8594 Q3069.3281,580.7813 3069.5313,580.7813 Q3069.8594,580.7813 3070.1094,581.0469 Q3070.375,581.2969 3070.375,581.6406 Q3070.375,581.9844 3070.0313,582.3906 Q3069.5313,582.9688 3068.7344,583.2969 Q3067.6563,583.75 3066.3594,583.75 Q3064.8438,583.75 3063.6406,583.125 Q3062.6563,582.625 3061.9688,581.5625 Q3061.2813,580.4844 3061.2813,579.2031 L3061.2813,578.0469 Q3061.2813,576.7188 3061.8906,575.5781 Q3062.5156,574.4219 3063.6094,573.8125 Q3064.7031,573.1875 3065.9375,573.1875 Q3066.6719,573.1875 3067.3125,573.3594 Q3067.9688,573.5156 3068.5156,573.875 Z " fill="#000000"/><text fill="#000000" font-family="sans-serif" font-size="14" lengthAdjust="spacing" textLength="108" x="3086.25" y="583.7285">IntegralException</text><line style="stroke:#181818;stroke-width:0.5;" x1="2979" x2="3269" y1="594" y2="594"/><rect fill="none" height="6" style="stroke:#C82930;stroke-width:1.0;" width="6" x="2986" y="605.3047"/><text fill="#000000" font-family="sans-serif" font-size="14" lengthAdjust="spacing" text-decoration="underline" textLength="135" x="2998" y="612.5332">long serialVersionUID</text><line style="stroke:#181818;stroke-width:0.5;" x1="2979" x2="3269" y1="619.6094" y2="619.6094"/><ellipse cx="2989" cy="633.9141" fill="#84BE84" rx="3" ry="3" style="stroke:#038048;stroke-width:1.0;"/><text fill="#000000" font-family="sans-serif" font-size="14" lengthAdjust="spacing" textLength="225" x="2998" y="638.1426">Create IntegralException(Integer)</text><ellipse cx="2989" cy="651.5234" fill="#84BE84" rx="3" ry="3" style="stroke:#038048;stroke-width:1.0;"/><text fill="#000000" font-family="sans-serif" font-size="14" lengthAdjust="spacing" textLength="266" x="2998" y="655.752">Create IntegralException(Integer,String)</text></g><!--MD5=[1f7eae288a78f0160cf886b49bc7a6ac]
class com.welab.integral.mapper.UserIntegralMapper--><g id="elem_com.welab.integral.mapper.UserIntegralMapper"><rect codeLine="72" fill="#F1F1F1" height="100.8281" id="com.welab.integral.mapper.UserIntegralMapper" rx="2.5" ry="2.5" style="stroke:#181818;stroke-width:0.5;" width="263" x="3747.5" y="174"/><ellipse cx="3811.25" cy="190" fill="#B4A7E5" rx="11" ry="11" style="stroke:#181818;stroke-width:1.0;"/><path d="M3812.2031,186.6406 L3812.2031,193.2969 L3813.9219,193.2969 Q3814.5313,193.2969 3814.7969,193.5313 Q3815.0625,193.7656 3815.0625,194.1563 Q3815.0625,194.5313 3814.7969,194.7656 Q3814.5313,195 3813.9219,195 L3808.7813,195 Q3808.1719,195 3807.9063,194.7656 Q3807.6406,194.5313 3807.6406,194.1406 Q3807.6406,193.7656 3807.9063,193.5313 Q3808.1719,193.2969 3808.7813,193.2969 L3810.5,193.2969 L3810.5,186.6406 L3808.7813,186.6406 Q3808.1719,186.6406 3807.9063,186.4063 Q3807.6406,186.1719 3807.6406,185.7813 Q3807.6406,185.4063 3807.9063,185.1719 Q3808.1719,184.9375 3808.7813,184.9375 L3813.9219,184.9375 Q3814.5313,184.9375 3814.7969,185.1719 Q3815.0625,185.4063 3815.0625,185.7813 Q3815.0625,186.1719 3814.7969,186.4063 Q3814.5313,186.6406 3813.9219,186.6406 L3812.2031,186.6406 Z " fill="#000000"/><text fill="#000000" font-family="sans-serif" font-size="14" font-style="italic" lengthAdjust="spacing" textLength="127" x="3831.75" y="195.7285">UserIntegralMapper</text><line style="stroke:#181818;stroke-width:0.5;" x1="3748.5" x2="4009.5" y1="206" y2="206"/><line style="stroke:#181818;stroke-width:0.5;" x1="3748.5" x2="4009.5" y1="214" y2="214"/><polygon fill="#4177AF" points="3758.5,224.3047,3754.5,230.3047,3762.5,230.3047" style="stroke:#1963A0;stroke-width:1.0;"/><text fill="#000000" font-family="sans-serif" font-size="14" lengthAdjust="spacing" textLength="140" x="3767.5" y="232.5332">int insert(UserIntegral)</text><polygon fill="#4177AF" points="3758.5,241.9141,3754.5,247.9141,3762.5,247.9141" style="stroke:#1963A0;stroke-width:1.0;"/><text fill="#000000" font-family="sans-serif" font-size="14" lengthAdjust="spacing" textLength="215" x="3767.5" y="250.1426">UserIntegral selectByUserId(Long)</text><polygon fill="#4177AF" points="3758.5,259.5234,3754.5,265.5234,3762.5,265.5234" style="stroke:#1963A0;stroke-width:1.0;"/><text fill="#000000" font-family="sans-serif" font-size="14" lengthAdjust="spacing" textLength="237" x="3767.5" y="267.752">int updateByPrimaryKey(UserIntegral)</text></g><!--MD5=[2b70a7dbeb568e937edf12d987620f26]
class com.welab.integral.mapper.UserIntegralTrackMapper--><g id="elem_com.welab.integral.mapper.UserIntegralTrackMapper"><rect codeLine="134" fill="#F1F1F1" height="100.8281" id="com.welab.integral.mapper.UserIntegralTrackMapper" rx="2.5" ry="2.5" style="stroke:#181818;stroke-width:0.5;" width="434" x="3278" y="174"/><ellipse cx="3408.75" cy="190" fill="#B4A7E5" rx="11" ry="11" style="stroke:#181818;stroke-width:1.0;"/><path d="M3409.7031,186.6406 L3409.7031,193.2969 L3411.4219,193.2969 Q3412.0313,193.2969 3412.2969,193.5313 Q3412.5625,193.7656 3412.5625,194.1563 Q3412.5625,194.5313 3412.2969,194.7656 Q3412.0313,195 3411.4219,195 L3406.2813,195 Q3405.6719,195 3405.4063,194.7656 Q3405.1406,194.5313 3405.1406,194.1406 Q3405.1406,193.7656 3405.4063,193.5313 Q3405.6719,193.2969 3406.2813,193.2969 L3408,193.2969 L3408,186.6406 L3406.2813,186.6406 Q3405.6719,186.6406 3405.4063,186.4063 Q3405.1406,186.1719 3405.1406,185.7813 Q3405.1406,185.4063 3405.4063,185.1719 Q3405.6719,184.9375 3406.2813,184.9375 L3411.4219,184.9375 Q3412.0313,184.9375 3412.2969,185.1719 Q3412.5625,185.4063 3412.5625,185.7813 Q3412.5625,186.1719 3412.2969,186.4063 Q3412.0313,186.6406 3411.4219,186.6406 L3409.7031,186.6406 Z " fill="#000000"/><text fill="#000000" font-family="sans-serif" font-size="14" font-style="italic" lengthAdjust="spacing" textLength="164" x="3429.25" y="195.7285">UserIntegralTrackMapper</text><line style="stroke:#181818;stroke-width:0.5;" x1="3279" x2="3711" y1="206" y2="206"/><line style="stroke:#181818;stroke-width:0.5;" x1="3279" x2="3711" y1="214" y2="214"/><polygon fill="#4177AF" points="3289,224.3047,3285,230.3047,3293,230.3047" style="stroke:#1963A0;stroke-width:1.0;"/><text fill="#000000" font-family="sans-serif" font-size="14" lengthAdjust="spacing" textLength="176" x="3298" y="232.5332">int insert(UserIntegralTrack)</text><polygon fill="#4177AF" points="3289,241.9141,3285,247.9141,3293,247.9141" style="stroke:#1963A0;stroke-width:1.0;"/><text fill="#000000" font-family="sans-serif" font-size="14" lengthAdjust="spacing" textLength="408" x="3298" y="250.1426">List&lt;UserIntegralTrack&gt; selectUserIntegralTrackList(Long,String)</text><polygon fill="#4177AF" points="3289,259.5234,3285,265.5234,3293,265.5234" style="stroke:#1963A0;stroke-width:1.0;"/><text fill="#000000" font-family="sans-serif" font-size="14" lengthAdjust="spacing" textLength="325" x="3298" y="267.752">int selectCountByUserIdAndEvevtType(Long,String)</text></g><!--MD5=[2b1e7c0564ee03ba9f8c7103497b7e2e]
class com.welab.integral.vo.UserIntegralTrack--><g id="elem_com.welab.integral.vo.UserIntegralTrack"><rect codeLine="90" fill="#F1F1F1" height="188.875" id="com.welab.integral.vo.UserIntegralTrack" rx="2.5" ry="2.5" style="stroke:#181818;stroke-width:0.5;" width="183" x="2738.5" y="518"/><ellipse cx="2771.05" cy="534" fill="#ADD1B2" rx="11" ry="11" style="stroke:#181818;stroke-width:1.0;"/><path d="M2773.8156,529.875 Q2773.9719,529.6563 2774.1594,529.5469 Q2774.3469,529.4375 2774.5656,529.4375 Q2774.9406,529.4375 2775.175,529.7031 Q2775.4094,529.9531 2775.4094,530.5625 L2775.4094,532.0156 Q2775.4094,532.625 2775.175,532.8906 Q2774.9406,533.1563 2774.5656,533.1563 Q2774.2219,533.1563 2774.0188,532.9531 Q2773.8156,532.7656 2773.7063,532.25 Q2773.6594,531.8906 2773.4719,531.7031 Q2773.1438,531.3281 2772.5344,531.1094 Q2771.925,530.8906 2771.3,530.8906 Q2770.5344,530.8906 2769.8938,531.2188 Q2769.2688,531.5469 2768.7688,532.2969 Q2768.2844,533.0469 2768.2844,534.0781 L2768.2844,535.1719 Q2768.2844,536.4063 2769.175,537.2344 Q2770.0656,538.0469 2771.6594,538.0469 Q2772.5969,538.0469 2773.2531,537.7969 Q2773.6438,537.6406 2774.0656,537.2031 Q2774.3313,536.9375 2774.4719,536.8594 Q2774.6281,536.7813 2774.8313,536.7813 Q2775.1594,536.7813 2775.4094,537.0469 Q2775.675,537.2969 2775.675,537.6406 Q2775.675,537.9844 2775.3313,538.3906 Q2774.8313,538.9688 2774.0344,539.2969 Q2772.9563,539.75 2771.6594,539.75 Q2770.1438,539.75 2768.9406,539.125 Q2767.9563,538.625 2767.2688,537.5625 Q2766.5813,536.4844 2766.5813,535.2031 L2766.5813,534.0469 Q2766.5813,532.7188 2767.1906,531.5781 Q2767.8156,530.4219 2768.9094,529.8125 Q2770.0031,529.1875 2771.2375,529.1875 Q2771.9719,529.1875 2772.6125,529.3594 Q2773.2688,529.5156 2773.8156,529.875 Z " fill="#000000"/><text fill="#000000" font-family="sans-serif" font-size="14" lengthAdjust="spacing" textLength="112" x="2788.95" y="539.7285">UserIntegralTrack</text><line style="stroke:#181818;stroke-width:0.5;" x1="2739.5" x2="2920.5" y1="550" y2="550"/><rect fill="none" height="6" style="stroke:#C82930;stroke-width:1.0;" width="6" x="2746.5" y="561.3047"/><text fill="#000000" font-family="sans-serif" font-size="14" lengthAdjust="spacing" text-decoration="underline" textLength="135" x="2758.5" y="568.5332">long serialVersionUID</text><rect fill="none" height="6" style="stroke:#C82930;stroke-width:1.0;" width="6" x="2746.5" y="578.9141"/><text fill="#000000" font-family="sans-serif" font-size="14" lengthAdjust="spacing" textLength="47" x="2758.5" y="586.1426">Long id</text><rect fill="none" height="6" style="stroke:#C82930;stroke-width:1.0;" width="6" x="2746.5" y="596.5234"/><text fill="#000000" font-family="sans-serif" font-size="14" lengthAdjust="spacing" textLength="75" x="2758.5" y="603.752">Long userId</text><rect fill="none" height="6" style="stroke:#C82930;stroke-width:1.0;" width="6" x="2746.5" y="614.1328"/><text fill="#000000" font-family="sans-serif" font-size="14" lengthAdjust="spacing" textLength="139" x="2758.5" y="621.3613">Integer updateIntegral</text><rect fill="none" height="6" style="stroke:#C82930;stroke-width:1.0;" width="6" x="2746.5" y="631.7422"/><text fill="#000000" font-family="sans-serif" font-size="14" lengthAdjust="spacing" textLength="157" x="2758.5" y="638.9707">Integer remainingIntegral</text><rect fill="none" height="6" style="stroke:#C82930;stroke-width:1.0;" width="6" x="2746.5" y="649.3516"/><text fill="#000000" font-family="sans-serif" font-size="14" lengthAdjust="spacing" textLength="108" x="2758.5" y="656.5801">String eventType</text><rect fill="none" height="6" style="stroke:#C82930;stroke-width:1.0;" width="6" x="2746.5" y="666.9609"/><text fill="#000000" font-family="sans-serif" font-size="14" lengthAdjust="spacing" textLength="85" x="2758.5" y="674.1895">String remark</text><rect fill="none" height="6" style="stroke:#C82930;stroke-width:1.0;" width="6" x="2746.5" y="684.5703"/><text fill="#000000" font-family="sans-serif" font-size="14" lengthAdjust="spacing" textLength="95" x="2758.5" y="691.7988">Date createdAt</text><line style="stroke:#181818;stroke-width:0.5;" x1="2739.5" x2="2920.5" y1="698.875" y2="698.875"/></g><!--MD5=[c71d879d4332bc8b7725a71fd823b035]
class com.welab.integral.vo.UserIntegralInfoVo--><g id="elem_com.welab.integral.vo.UserIntegralInfoVo"><rect codeLine="128" fill="#F1F1F1" height="118.4375" id="com.welab.integral.vo.UserIntegralInfoVo" rx="2.5" ry="2.5" style="stroke:#181818;stroke-width:0.5;" width="381" x="2322.5" y="553.5"/><ellipse cx="2450.75" cy="569.5" fill="#ADD1B2" rx="11" ry="11" style="stroke:#181818;stroke-width:1.0;"/><path d="M2453.5156,565.375 Q2453.6719,565.1563 2453.8594,565.0469 Q2454.0469,564.9375 2454.2656,564.9375 Q2454.6406,564.9375 2454.875,565.2031 Q2455.1094,565.4531 2455.1094,566.0625 L2455.1094,567.5156 Q2455.1094,568.125 2454.875,568.3906 Q2454.6406,568.6563 2454.2656,568.6563 Q2453.9219,568.6563 2453.7188,568.4531 Q2453.5156,568.2656 2453.4063,567.75 Q2453.3594,567.3906 2453.1719,567.2031 Q2452.8438,566.8281 2452.2344,566.6094 Q2451.625,566.3906 2451,566.3906 Q2450.2344,566.3906 2449.5938,566.7188 Q2448.9688,567.0469 2448.4688,567.7969 Q2447.9844,568.5469 2447.9844,569.5781 L2447.9844,570.6719 Q2447.9844,571.9063 2448.875,572.7344 Q2449.7656,573.5469 2451.3594,573.5469 Q2452.2969,573.5469 2452.9531,573.2969 Q2453.3438,573.1406 2453.7656,572.7031 Q2454.0313,572.4375 2454.1719,572.3594 Q2454.3281,572.2813 2454.5313,572.2813 Q2454.8594,572.2813 2455.1094,572.5469 Q2455.375,572.7969 2455.375,573.1406 Q2455.375,573.4844 2455.0313,573.8906 Q2454.5313,574.4688 2453.7344,574.7969 Q2452.6563,575.25 2451.3594,575.25 Q2449.8438,575.25 2448.6406,574.625 Q2447.6563,574.125 2446.9688,573.0625 Q2446.2813,571.9844 2446.2813,570.7031 L2446.2813,569.5469 Q2446.2813,568.2188 2446.8906,567.0781 Q2447.5156,565.9219 2448.6094,565.3125 Q2449.7031,564.6875 2450.9375,564.6875 Q2451.6719,564.6875 2452.3125,564.8594 Q2452.9688,565.0156 2453.5156,565.375 Z " fill="#000000"/><text fill="#000000" font-family="sans-serif" font-size="14" lengthAdjust="spacing" textLength="116" x="2471.25" y="575.2285">UserIntegralInfoVo</text><line style="stroke:#181818;stroke-width:0.5;" x1="2323.5" x2="2702.5" y1="585.5" y2="585.5"/><rect fill="none" height="6" style="stroke:#C82930;stroke-width:1.0;" width="6" x="2330.5" y="596.8047"/><text fill="#000000" font-family="sans-serif" font-size="14" lengthAdjust="spacing" text-decoration="underline" textLength="135" x="2342.5" y="604.0332">long serialVersionUID</text><rect fill="none" height="6" style="stroke:#C82930;stroke-width:1.0;" width="6" x="2330.5" y="614.4141"/><text fill="#000000" font-family="sans-serif" font-size="14" lengthAdjust="spacing" textLength="95" x="2342.5" y="621.6426">Integer integral</text><rect fill="none" height="6" style="stroke:#C82930;stroke-width:1.0;" width="6" x="2330.5" y="632.0234"/><text fill="#000000" font-family="sans-serif" font-size="14" lengthAdjust="spacing" textLength="149" x="2342.5" y="639.252">Integer inviteesQuantity</text><rect fill="none" height="6" style="stroke:#C82930;stroke-width:1.0;" width="6" x="2330.5" y="649.6328"/><text fill="#000000" font-family="sans-serif" font-size="14" lengthAdjust="spacing" textLength="355" x="2342.5" y="656.8613">PageInfo&lt;UserIntegralTrack&gt; userIntegralTrackPageInfo</text><line style="stroke:#181818;stroke-width:0.5;" x1="2323.5" x2="2702.5" y1="663.9375" y2="663.9375"/></g><!--MD5=[74e491a61adda390eb57e1d5ff771d8f]
class com.welab.integral.filter.LogFilter--><g id="elem_com.welab.integral.filter.LogFilter"><rect codeLine="100" fill="#F1F1F1" height="259.3125" id="com.welab.integral.filter.LogFilter" rx="2.5" ry="2.5" style="stroke:#181818;stroke-width:0.5;" width="493" x="3920.5" y="483"/><ellipse cx="4134.75" cy="499" fill="#ADD1B2" rx="11" ry="11" style="stroke:#181818;stroke-width:1.0;"/><path d="M4137.5156,494.875 Q4137.6719,494.6563 4137.8594,494.5469 Q4138.0469,494.4375 4138.2656,494.4375 Q4138.6406,494.4375 4138.875,494.7031 Q4139.1094,494.9531 4139.1094,495.5625 L4139.1094,497.0156 Q4139.1094,497.625 4138.875,497.8906 Q4138.6406,498.1563 4138.2656,498.1563 Q4137.9219,498.1563 4137.7188,497.9531 Q4137.5156,497.7656 4137.4063,497.25 Q4137.3594,496.8906 4137.1719,496.7031 Q4136.8438,496.3281 4136.2344,496.1094 Q4135.625,495.8906 4135,495.8906 Q4134.2344,495.8906 4133.5938,496.2188 Q4132.9688,496.5469 4132.4688,497.2969 Q4131.9844,498.0469 4131.9844,499.0781 L4131.9844,500.1719 Q4131.9844,501.4063 4132.875,502.2344 Q4133.7656,503.0469 4135.3594,503.0469 Q4136.2969,503.0469 4136.9531,502.7969 Q4137.3438,502.6406 4137.7656,502.2031 Q4138.0313,501.9375 4138.1719,501.8594 Q4138.3281,501.7813 4138.5313,501.7813 Q4138.8594,501.7813 4139.1094,502.0469 Q4139.375,502.2969 4139.375,502.6406 Q4139.375,502.9844 4139.0313,503.3906 Q4138.5313,503.9688 4137.7344,504.2969 Q4136.6563,504.75 4135.3594,504.75 Q4133.8438,504.75 4132.6406,504.125 Q4131.6563,503.625 4130.9688,502.5625 Q4130.2813,501.4844 4130.2813,500.2031 L4130.2813,499.0469 Q4130.2813,497.7188 4130.8906,496.5781 Q4131.5156,495.4219 4132.6094,494.8125 Q4133.7031,494.1875 4134.9375,494.1875 Q4135.6719,494.1875 4136.3125,494.3594 Q4136.9688,494.5156 4137.5156,494.875 Z " fill="#000000"/><text fill="#000000" font-family="sans-serif" font-size="14" lengthAdjust="spacing" textLength="56" x="4155.25" y="504.7285">LogFilter</text><line style="stroke:#181818;stroke-width:0.5;" x1="3921.5" x2="4412.5" y1="515" y2="515"/><rect fill="none" height="6" style="stroke:#C82930;stroke-width:1.0;" width="6" x="3928.5" y="526.3047"/><text fill="#000000" font-family="sans-serif" font-size="14" lengthAdjust="spacing" text-decoration="underline" textLength="109" x="3940.5" y="533.5332">Logger LOGGER</text><rect fill="none" height="6" style="stroke:#C82930;stroke-width:1.0;" width="6" x="3928.5" y="543.9141"/><text fill="#000000" font-family="sans-serif" font-size="14" lengthAdjust="spacing" text-decoration="underline" textLength="192" x="3940.5" y="551.1426">String NOTIFICATION_PREFIX</text><rect fill="none" height="6" style="stroke:#C82930;stroke-width:1.0;" width="6" x="3928.5" y="561.5234"/><text fill="#000000" font-family="sans-serif" font-size="14" lengthAdjust="spacing" text-decoration="underline" textLength="163" x="3940.5" y="568.752">String REQUEST_PREFIX</text><rect fill="none" height="6" style="stroke:#C82930;stroke-width:1.0;" width="6" x="3928.5" y="579.1328"/><text fill="#000000" font-family="sans-serif" font-size="14" lengthAdjust="spacing" text-decoration="underline" textLength="172" x="3940.5" y="586.3613">String RESPONSE_PREFIX</text><rect fill="none" height="6" style="stroke:#C82930;stroke-width:1.0;" width="6" x="3928.5" y="596.7422"/><text fill="#000000" font-family="sans-serif" font-size="14" lengthAdjust="spacing" textLength="97" x="3940.5" y="603.9707">AtomicLong _id</text><line style="stroke:#181818;stroke-width:0.5;" x1="3921.5" x2="4412.5" y1="611.0469" y2="611.0469"/><polygon fill="#FFFF44" points="3931.5,620.3516,3935.5,624.3516,3931.5,628.3516,3927.5,624.3516" style="stroke:#B38D22;stroke-width:1.0;"/><text fill="#000000" font-family="sans-serif" font-size="14" lengthAdjust="spacing" textLength="467" x="3940.5" y="629.5801">void doFilterInternal(HttpServletRequest,HttpServletResponse,FilterChain)</text><ellipse cx="3931.5" cy="642.9609" fill="#84BE84" rx="3" ry="3" style="stroke:#038048;stroke-width:1.0;"/><text fill="#000000" font-family="sans-serif" font-size="14" lengthAdjust="spacing" textLength="87" x="3940.5" y="647.1895">void destroy()</text><rect fill="#F24D5C" height="6" style="stroke:#C82930;stroke-width:1.0;" width="6" x="3928.5" y="657.5703"/><text fill="#000000" font-family="sans-serif" font-size="14" lengthAdjust="spacing" textLength="140" x="3940.5" y="664.7988">void log(StringBuilder)</text><rect fill="#F24D5C" height="6" style="stroke:#C82930;stroke-width:1.0;" width="6" x="3928.5" y="675.1797"/><text fill="#000000" font-family="sans-serif" font-size="14" lengthAdjust="spacing" textLength="252" x="3940.5" y="682.4082">StringBuilder prefixId(StringBuilder,long)</text><rect fill="#F24D5C" height="6" style="stroke:#C82930;stroke-width:1.0;" width="6" x="3928.5" y="692.7891"/><text fill="#000000" font-family="sans-serif" font-size="14" lengthAdjust="spacing" textLength="383" x="3940.5" y="700.0176">void printRequestLine(StringBuilder,String,long,String,String)</text><rect fill="#F24D5C" height="6" style="stroke:#C82930;stroke-width:1.0;" width="6" x="3928.5" y="710.3984"/><text fill="#000000" font-family="sans-serif" font-size="14" lengthAdjust="spacing" textLength="331" x="3940.5" y="717.627">void printResponseLine(StringBuilder,String,long,int)</text><rect fill="#F24D5C" height="6" style="stroke:#C82930;stroke-width:1.0;" width="6" x="3928.5" y="728.0078"/><text fill="#000000" font-family="sans-serif" font-size="14" lengthAdjust="spacing" textLength="451" x="3940.5" y="735.2363">void printPrefixedHeaders(StringBuilder,long,String,HttpServletRequest)</text></g><!--MD5=[269681ac7087e6ee3ebd7a3e75913f51]
class com.welab.integral.Application--><g id="elem_com.welab.integral.Application"><rect codeLine="114" fill="#F1F1F1" height="118.4375" id="com.welab.integral.Application" rx="2.5" ry="2.5" style="stroke:#181818;stroke-width:0.5;" width="396" x="4324" y="165.5"/><ellipse cx="4483.25" cy="181.5" fill="#ADD1B2" rx="11" ry="11" style="stroke:#181818;stroke-width:1.0;"/><path d="M4486.0156,177.375 Q4486.1719,177.1563 4486.3594,177.0469 Q4486.5469,176.9375 4486.7656,176.9375 Q4487.1406,176.9375 4487.375,177.2031 Q4487.6094,177.4531 4487.6094,178.0625 L4487.6094,179.5156 Q4487.6094,180.125 4487.375,180.3906 Q4487.1406,180.6563 4486.7656,180.6563 Q4486.4219,180.6563 4486.2188,180.4531 Q4486.0156,180.2656 4485.9063,179.75 Q4485.8594,179.3906 4485.6719,179.2031 Q4485.3438,178.8281 4484.7344,178.6094 Q4484.125,178.3906 4483.5,178.3906 Q4482.7344,178.3906 4482.0938,178.7188 Q4481.4688,179.0469 4480.9688,179.7969 Q4480.4844,180.5469 4480.4844,181.5781 L4480.4844,182.6719 Q4480.4844,183.9063 4481.375,184.7344 Q4482.2656,185.5469 4483.8594,185.5469 Q4484.7969,185.5469 4485.4531,185.2969 Q4485.8438,185.1406 4486.2656,184.7031 Q4486.5313,184.4375 4486.6719,184.3594 Q4486.8281,184.2813 4487.0313,184.2813 Q4487.3594,184.2813 4487.6094,184.5469 Q4487.875,184.7969 4487.875,185.1406 Q4487.875,185.4844 4487.5313,185.8906 Q4487.0313,186.4688 4486.2344,186.7969 Q4485.1563,187.25 4483.8594,187.25 Q4482.3438,187.25 4481.1406,186.625 Q4480.1563,186.125 4479.4688,185.0625 Q4478.7813,183.9844 4478.7813,182.7031 L4478.7813,181.5469 Q4478.7813,180.2188 4479.3906,179.0781 Q4480.0156,177.9219 4481.1094,177.3125 Q4482.2031,176.6875 4483.4375,176.6875 Q4484.1719,176.6875 4484.8125,176.8594 Q4485.4688,177.0156 4486.0156,177.375 Z " fill="#000000"/><text fill="#000000" font-family="sans-serif" font-size="14" lengthAdjust="spacing" textLength="69" x="4503.75" y="187.2285">Application</text><line style="stroke:#181818;stroke-width:0.5;" x1="4325" x2="4719" y1="197.5" y2="197.5"/><rect fill="none" height="6" style="stroke:#C82930;stroke-width:1.0;" width="6" x="4332" y="208.8047"/><text fill="#000000" font-family="sans-serif" font-size="14" lengthAdjust="spacing" text-decoration="underline" textLength="79" x="4344" y="216.0332">Logger LOG</text><line style="stroke:#181818;stroke-width:0.5;" x1="4325" x2="4719" y1="223.1094" y2="223.1094"/><ellipse cx="4335" cy="237.4141" fill="#84BE84" rx="3" ry="3" style="stroke:#038048;stroke-width:1.0;"/><text fill="#000000" font-family="sans-serif" font-size="14" lengthAdjust="spacing" textLength="370" x="4344" y="241.6426">HttpMessageConverters fastJsonHttpMessageConverters()</text><ellipse cx="4335" cy="255.0234" fill="#84BE84" rx="3" ry="3" style="stroke:#038048;stroke-width:1.0;"/><text fill="#000000" font-family="sans-serif" font-size="14" lengthAdjust="spacing" textLength="250" x="4344" y="259.252">FilterRegistrationBean logRegistration()</text><ellipse cx="4335" cy="272.6328" fill="#84BE84" rx="3" ry="3" style="stroke:#038048;stroke-width:1.0;"/><text fill="#000000" font-family="sans-serif" font-size="14" lengthAdjust="spacing" text-decoration="underline" textLength="115" x="4344" y="276.8613">void main(String[])</text></g><!--MD5=[cec9acece582a583ac5adb2bc83d990f]
class com.welab.common.exception.FastRuntimeException--><g id="elem_com.welab.common.exception.FastRuntimeException"><rect fill="#F1F1F1" height="48" id="com.welab.common.exception.FastRuntimeException" rx="2.5" ry="2.5" style="stroke:#181818;stroke-width:0.5;" width="173" x="3037.5" y="200.5"/><ellipse cx="3052.5" cy="216.5" fill="#ADD1B2" rx="11" ry="11" style="stroke:#181818;stroke-width:1.0;"/><path d="M3055.2656,212.375 Q3055.4219,212.1563 3055.6094,212.0469 Q3055.7969,211.9375 3056.0156,211.9375 Q3056.3906,211.9375 3056.625,212.2031 Q3056.8594,212.4531 3056.8594,213.0625 L3056.8594,214.5156 Q3056.8594,215.125 3056.625,215.3906 Q3056.3906,215.6563 3056.0156,215.6563 Q3055.6719,215.6563 3055.4688,215.4531 Q3055.2656,215.2656 3055.1563,214.75 Q3055.1094,214.3906 3054.9219,214.2031 Q3054.5938,213.8281 3053.9844,213.6094 Q3053.375,213.3906 3052.75,213.3906 Q3051.9844,213.3906 3051.3438,213.7188 Q3050.7188,214.0469 3050.2188,214.7969 Q3049.7344,215.5469 3049.7344,216.5781 L3049.7344,217.6719 Q3049.7344,218.9063 3050.625,219.7344 Q3051.5156,220.5469 3053.1094,220.5469 Q3054.0469,220.5469 3054.7031,220.2969 Q3055.0938,220.1406 3055.5156,219.7031 Q3055.7813,219.4375 3055.9219,219.3594 Q3056.0781,219.2813 3056.2813,219.2813 Q3056.6094,219.2813 3056.8594,219.5469 Q3057.125,219.7969 3057.125,220.1406 Q3057.125,220.4844 3056.7813,220.8906 Q3056.2813,221.4688 3055.4844,221.7969 Q3054.4063,222.25 3053.1094,222.25 Q3051.5938,222.25 3050.3906,221.625 Q3049.4063,221.125 3048.7188,220.0625 Q3048.0313,218.9844 3048.0313,217.7031 L3048.0313,216.5469 Q3048.0313,215.2188 3048.6406,214.0781 Q3049.2656,212.9219 3050.3594,212.3125 Q3051.4531,211.6875 3052.6875,211.6875 Q3053.4219,211.6875 3054.0625,211.8594 Q3054.7188,212.0156 3055.2656,212.375 Z " fill="#000000"/><text fill="#000000" font-family="sans-serif" font-size="14" lengthAdjust="spacing" textLength="141" x="3066.5" y="222.2285">FastRuntimeException</text><line style="stroke:#181818;stroke-width:0.5;" x1="3038.5" x2="3209.5" y1="232.5" y2="232.5"/><line style="stroke:#181818;stroke-width:0.5;" x1="3038.5" x2="3209.5" y1="240.5" y2="240.5"/></g><!--MD5=[5a5af9b0547913863cbe0ddf55a9ab5e]
class java.io.Serializable--><g id="elem_java.io.Serializable"><rect fill="#F1F1F1" height="48" id="java.io.Serializable" rx="2.5" ry="2.5" style="stroke:#181818;stroke-width:0.5;" width="104" x="2253" y="200.5"/><ellipse cx="2268" cy="216.5" fill="#ADD1B2" rx="11" ry="11" style="stroke:#181818;stroke-width:1.0;"/><path d="M2270.7656,212.375 Q2270.9219,212.1563 2271.1094,212.0469 Q2271.2969,211.9375 2271.5156,211.9375 Q2271.8906,211.9375 2272.125,212.2031 Q2272.3594,212.4531 2272.3594,213.0625 L2272.3594,214.5156 Q2272.3594,215.125 2272.125,215.3906 Q2271.8906,215.6563 2271.5156,215.6563 Q2271.1719,215.6563 2270.9688,215.4531 Q2270.7656,215.2656 2270.6563,214.75 Q2270.6094,214.3906 2270.4219,214.2031 Q2270.0938,213.8281 2269.4844,213.6094 Q2268.875,213.3906 2268.25,213.3906 Q2267.4844,213.3906 2266.8438,213.7188 Q2266.2188,214.0469 2265.7188,214.7969 Q2265.2344,215.5469 2265.2344,216.5781 L2265.2344,217.6719 Q2265.2344,218.9063 2266.125,219.7344 Q2267.0156,220.5469 2268.6094,220.5469 Q2269.5469,220.5469 2270.2031,220.2969 Q2270.5938,220.1406 2271.0156,219.7031 Q2271.2813,219.4375 2271.4219,219.3594 Q2271.5781,219.2813 2271.7813,219.2813 Q2272.1094,219.2813 2272.3594,219.5469 Q2272.625,219.7969 2272.625,220.1406 Q2272.625,220.4844 2272.2813,220.8906 Q2271.7813,221.4688 2270.9844,221.7969 Q2269.9063,222.25 2268.6094,222.25 Q2267.0938,222.25 2265.8906,221.625 Q2264.9063,221.125 2264.2188,220.0625 Q2263.5313,218.9844 2263.5313,217.7031 L2263.5313,216.5469 Q2263.5313,215.2188 2264.1406,214.0781 Q2264.7656,212.9219 2265.8594,212.3125 Q2266.9531,211.6875 2268.1875,211.6875 Q2268.9219,211.6875 2269.5625,211.8594 Q2270.2188,212.0156 2270.7656,212.375 Z " fill="#000000"/><text fill="#000000" font-family="sans-serif" font-size="14" lengthAdjust="spacing" textLength="72" x="2282" y="222.2285">Serializable</text><line style="stroke:#181818;stroke-width:0.5;" x1="2254" x2="2356" y1="232.5" y2="232.5"/><line style="stroke:#181818;stroke-width:0.5;" x1="2254" x2="2356" y1="240.5" y2="240.5"/></g><!--MD5=[2312af74b5b68c1da90a8f57523e48f5]
class org.springframework.web.filter.OncePerRequestFilter--><g id="elem_org.springframework.web.filter.OncePerRequestFilter"><rect fill="#F1F1F1" height="48" id="org.springframework.web.filter.OncePerRequestFilter" rx="2.5" ry="2.5" style="stroke:#181818;stroke-width:0.5;" width="173" x="4080.5" y="200.5"/><ellipse cx="4095.5" cy="216.5" fill="#ADD1B2" rx="11" ry="11" style="stroke:#181818;stroke-width:1.0;"/><path d="M4098.2656,212.375 Q4098.4219,212.1563 4098.6094,212.0469 Q4098.7969,211.9375 4099.0156,211.9375 Q4099.3906,211.9375 4099.625,212.2031 Q4099.8594,212.4531 4099.8594,213.0625 L4099.8594,214.5156 Q4099.8594,215.125 4099.625,215.3906 Q4099.3906,215.6563 4099.0156,215.6563 Q4098.6719,215.6563 4098.4688,215.4531 Q4098.2656,215.2656 4098.1563,214.75 Q4098.1094,214.3906 4097.9219,214.2031 Q4097.5938,213.8281 4096.9844,213.6094 Q4096.375,213.3906 4095.75,213.3906 Q4094.9844,213.3906 4094.3438,213.7188 Q4093.7188,214.0469 4093.2188,214.7969 Q4092.7344,215.5469 4092.7344,216.5781 L4092.7344,217.6719 Q4092.7344,218.9063 4093.625,219.7344 Q4094.5156,220.5469 4096.1094,220.5469 Q4097.0469,220.5469 4097.7031,220.2969 Q4098.0938,220.1406 4098.5156,219.7031 Q4098.7813,219.4375 4098.9219,219.3594 Q4099.0781,219.2813 4099.2813,219.2813 Q4099.6094,219.2813 4099.8594,219.5469 Q4100.125,219.7969 4100.125,220.1406 Q4100.125,220.4844 4099.7813,220.8906 Q4099.2813,221.4688 4098.4844,221.7969 Q4097.4063,222.25 4096.1094,222.25 Q4094.5938,222.25 4093.3906,221.625 Q4092.4063,221.125 4091.7188,220.0625 Q4091.0313,218.9844 4091.0313,217.7031 L4091.0313,216.5469 Q4091.0313,215.2188 4091.6406,214.0781 Q4092.2656,212.9219 4093.3594,212.3125 Q4094.4531,211.6875 4095.6875,211.6875 Q4096.4219,211.6875 4097.0625,211.8594 Q4097.7188,212.0156 4098.2656,212.375 Z " fill="#000000"/><text fill="#000000" font-family="sans-serif" font-size="14" lengthAdjust="spacing" textLength="141" x="4109.5" y="222.2285">OncePerRequestFilter</text><line style="stroke:#181818;stroke-width:0.5;" x1="4081.5" x2="4252.5" y1="232.5" y2="232.5"/><line style="stroke:#181818;stroke-width:0.5;" x1="4081.5" x2="4252.5" y1="240.5" y2="240.5"/></g><!--MD5=[101d8ed642642cbbd9f3832507a93325]
class org.springframework.test.context.junit4.AbstractJUnit4SpringContextTests--><g id="elem_org.springframework.test.context.junit4.AbstractJUnit4SpringContextTests"><rect fill="#F1F1F1" height="48" id="org.springframework.test.context.junit4.AbstractJUnit4SpringContextTests" rx="2.5" ry="2.5" style="stroke:#181818;stroke-width:0.5;" width="246" x="1320" y="200.5"/><ellipse cx="1335" cy="216.5" fill="#ADD1B2" rx="11" ry="11" style="stroke:#181818;stroke-width:1.0;"/><path d="M1337.7656,212.375 Q1337.9219,212.1563 1338.1094,212.0469 Q1338.2969,211.9375 1338.5156,211.9375 Q1338.8906,211.9375 1339.125,212.2031 Q1339.3594,212.4531 1339.3594,213.0625 L1339.3594,214.5156 Q1339.3594,215.125 1339.125,215.3906 Q1338.8906,215.6563 1338.5156,215.6563 Q1338.1719,215.6563 1337.9688,215.4531 Q1337.7656,215.2656 1337.6563,214.75 Q1337.6094,214.3906 1337.4219,214.2031 Q1337.0938,213.8281 1336.4844,213.6094 Q1335.875,213.3906 1335.25,213.3906 Q1334.4844,213.3906 1333.8438,213.7188 Q1333.2188,214.0469 1332.7188,214.7969 Q1332.2344,215.5469 1332.2344,216.5781 L1332.2344,217.6719 Q1332.2344,218.9063 1333.125,219.7344 Q1334.0156,220.5469 1335.6094,220.5469 Q1336.5469,220.5469 1337.2031,220.2969 Q1337.5938,220.1406 1338.0156,219.7031 Q1338.2813,219.4375 1338.4219,219.3594 Q1338.5781,219.2813 1338.7813,219.2813 Q1339.1094,219.2813 1339.3594,219.5469 Q1339.625,219.7969 1339.625,220.1406 Q1339.625,220.4844 1339.2813,220.8906 Q1338.7813,221.4688 1337.9844,221.7969 Q1336.9063,222.25 1335.6094,222.25 Q1334.0938,222.25 1332.8906,221.625 Q1331.9063,221.125 1331.2188,220.0625 Q1330.5313,218.9844 1330.5313,217.7031 L1330.5313,216.5469 Q1330.5313,215.2188 1331.1406,214.0781 Q1331.7656,212.9219 1332.8594,212.3125 Q1333.9531,211.6875 1335.1875,211.6875 Q1335.9219,211.6875 1336.5625,211.8594 Q1337.2188,212.0156 1337.7656,212.375 Z " fill="#000000"/><text fill="#000000" font-family="sans-serif" font-size="14" lengthAdjust="spacing" textLength="214" x="1349" y="222.2285">AbstractJUnit4SpringContextTests</text><line style="stroke:#181818;stroke-width:0.5;" x1="1321" x2="1565" y1="232.5" y2="232.5"/><line style="stroke:#181818;stroke-width:0.5;" x1="1321" x2="1565" y1="240.5" y2="240.5"/></g><!--MD5=[9ecd2989d0fe61d2559311985d0776d2]
reverse link com.welab.integral.test.SimpleTest to com.welab.integral.test.UserIntegralDubboServiceTest--><g id="link_com.welab.integral.test.SimpleTest_com.welab.integral.test.UserIntegralDubboServiceTest"><path codeLine="141" d="M1441.51,666 C1440.3,708.65 1438.6,768.39 1437.41,810.28 " fill="none" id="com.welab.integral.test.SimpleTest-backto-com.welab.integral.test.UserIntegralDubboServiceTest" style="stroke:#181818;stroke-width:1.0;"/><polygon fill="none" points="1434.52,665.52,1442.08,645.73,1448.51,665.92,1434.52,665.52" style="stroke:#181818;stroke-width:1.0;"/></g><!--MD5=[fd2a8d97be1d743231d5a6e5726c8696]
reverse link com.welab.integral.dto.PageInfoDto to com.welab.integral.dto.UserIntegralTrackInfoDto--><g id="link_com.welab.integral.dto.PageInfoDto_com.welab.integral.dto.UserIntegralTrackInfoDto"><path codeLine="142" d="M1992.97,683.33 C1995.46,727.32 1998.6,782.57 2000.7,819.46 " fill="none" id="com.welab.integral.dto.PageInfoDto-backto-com.welab.integral.dto.UserIntegralTrackInfoDto" style="stroke:#181818;stroke-width:1.0;"/><polygon fill="none" points="1985.96,683.45,1991.82,663.09,1999.94,682.66,1985.96,683.45" style="stroke:#181818;stroke-width:1.0;"/></g><!--MD5=[77f7e2cc1fc28d9f5fb1e18c67c45d6f]
reverse link com.welab.integral.service.UserIntegralDubboService to com.welab.integral.service.impl.UserIntegralDubboServiceImpl--><g id="link_com.welab.integral.service.UserIntegralDubboService_com.welab.integral.service.impl.UserIntegralDubboServiceImpl"><path codeLine="143" d="M343,313.02 C343,374.11 343,455.55 343,517.93 " fill="none" id="com.welab.integral.service.UserIntegralDubboService-backto-com.welab.integral.service.impl.UserIntegralDubboServiceImpl" style="stroke:#181818;stroke-width:1.0;stroke-dasharray:7.0,7.0;"/><polygon fill="none" points="336,312.74,343,292.74,350,312.74,336,312.74" style="stroke:#181818;stroke-width:1.0;"/></g><!--MD5=[2aabcab146e0a456217d85c37f87362f]
reverse link com.welab.common.exception.FastRuntimeException to com.welab.integral.exception.IntegralException--><g id="link_com.welab.common.exception.FastRuntimeException_com.welab.integral.exception.IntegralException"><path codeLine="144" d="M3124,269.17 C3124,341.54 3124,485.89 3124,561.96 " fill="none" id="com.welab.common.exception.FastRuntimeException-backto-com.welab.integral.exception.IntegralException" style="stroke:#181818;stroke-width:1.0;"/><polygon fill="none" points="3117,268.78,3124,248.78,3131,268.78,3117,268.78" style="stroke:#181818;stroke-width:1.0;"/></g><!--MD5=[38962c1af6fe3892afab57c2f8047cbf]
reverse link java.io.Serializable to com.welab.integral.dto.UserIntegralDto--><g id="link_java.io.Serializable_com.welab.integral.dto.UserIntegralDto"><path codeLine="145" d="M2291.76,268.09 C2271.01,334.84 2230.64,464.68 2205.93,544.18 " fill="none" id="java.io.Serializable-backto-com.welab.integral.dto.UserIntegralDto" style="stroke:#181818;stroke-width:1.0;stroke-dasharray:7.0,7.0;"/><polygon fill="none" points="2285.14,265.8,2297.76,248.78,2298.51,269.95,2285.14,265.8" style="stroke:#181818;stroke-width:1.0;"/></g><!--MD5=[97f2fa4ac5fee15e7fdcd78003a456a1]
reverse link com.welab.integral.test.SimpleTest to com.welab.integral.test.ScaffoldTest--><g id="link_com.welab.integral.test.SimpleTest_com.welab.integral.test.ScaffoldTest"><path codeLine="146" d="M1462.28,664.4 C1477.11,697.43 1500.59,739.16 1533,766 C1569.38,796.13 1589.51,783.55 1633,802 C1638.67,804.41 1644.46,806.95 1650.28,809.58 " fill="none" id="com.welab.integral.test.SimpleTest-backto-com.welab.integral.test.ScaffoldTest" style="stroke:#181818;stroke-width:1.0;"/><polygon fill="none" points="1455.69,666.81,1454.35,645.66,1468.58,661.35,1455.69,666.81" style="stroke:#181818;stroke-width:1.0;"/></g><!--MD5=[ee67cced4e56f3e7c213c93c229ae113]
reverse link java.io.Serializable to com.welab.integral.vo.UserIntegralTrack--><g id="link_java.io.Serializable_com.welab.integral.vo.UserIntegralTrack"><path codeLine="147" d="M2348.37,261.61 C2408.76,309.62 2523.61,392.84 2637,431 C2654.77,436.98 2705.03,429.18 2721,439 C2751.03,457.46 2774.18,487.63 2791.27,517.61 " fill="none" id="java.io.Serializable-backto-com.welab.integral.vo.UserIntegralTrack" style="stroke:#181818;stroke-width:1.0;stroke-dasharray:7.0,7.0;"/><polygon fill="none" points="2343.64,266.79,2332.47,248.78,2352.43,255.9,2343.64,266.79" style="stroke:#181818;stroke-width:1.0;"/></g><!--MD5=[940ebf5ad26ec8fc29392ff9274c32c3]
reverse link org.springframework.web.filter.OncePerRequestFilter to com.welab.integral.filter.LogFilter--><g id="link_org.springframework.web.filter.OncePerRequestFilter_com.welab.integral.filter.LogFilter"><path codeLine="148" d="M4167,269.1 C4167,320.66 4167,408.82 4167,482.77 " fill="none" id="org.springframework.web.filter.OncePerRequestFilter-backto-com.welab.integral.filter.LogFilter" style="stroke:#181818;stroke-width:1.0;"/><polygon fill="none" points="4160,268.78,4167,248.78,4174,268.78,4160,268.78" style="stroke:#181818;stroke-width:1.0;"/></g><!--MD5=[65c660ed0f3ee40856f6b477551670f3]
reverse link org.springframework.test.context.junit4.AbstractJUnit4SpringContextTests to com.welab.integral.test.SimpleTest--><g id="link_org.springframework.test.context.junit4.AbstractJUnit4SpringContextTests_com.welab.integral.test.SimpleTest"><path codeLine="149" d="M1443,268.86 C1443,347.06 1443,510 1443,579.25 " fill="none" id="org.springframework.test.context.junit4.AbstractJUnit4SpringContextTests-backto-com.welab.integral.test.SimpleTest" style="stroke:#181818;stroke-width:1.0;"/><polygon fill="none" points="1436,268.78,1443,248.78,1450,268.78,1436,268.78" style="stroke:#181818;stroke-width:1.0;"/></g><!--MD5=[cd732eb5a1c553d9df3c3f53b05dff2e]
reverse link java.io.Serializable to com.welab.integral.dto.PageInfoDto--><g id="link_java.io.Serializable_com.welab.integral.dto.PageInfoDto"><path codeLine="150" d="M2261.44,261.63 C2214.7,301.78 2140.06,370.11 2087,439 C2057.37,477.48 2030.65,525.9 2012.62,561.64 " fill="none" id="java.io.Serializable-backto-com.welab.integral.dto.PageInfoDto" style="stroke:#181818;stroke-width:1.0;stroke-dasharray:7.0,7.0;"/><polygon fill="none" points="2256.95,256.25,2276.72,248.64,2266.01,266.92,2256.95,256.25" style="stroke:#181818;stroke-width:1.0;"/></g><!--MD5=[b3a4785b4ef348027fbb2f6805a24085]
reverse link java.io.Serializable to com.welab.integral.vo.UserIntegralInfoVo--><g id="link_java.io.Serializable_com.welab.integral.vo.UserIntegralInfoVo"><path codeLine="151" d="M2327.16,266.63 C2364.29,335.52 2439.15,474.45 2481.65,553.33 " fill="none" id="java.io.Serializable-backto-com.welab.integral.vo.UserIntegralInfoVo" style="stroke:#181818;stroke-width:1.0;stroke-dasharray:7.0,7.0;"/><polygon fill="none" points="2320.87,269.7,2317.54,248.78,2333.19,263.06,2320.87,269.7" style="stroke:#181818;stroke-width:1.0;"/></g><!--MD5=[f95bfdf32d5b256107247c97beaaf695]
@startuml
class com.welab.integral.service.UserIntegralService {
- Logger logger
- UserIntegralMapper userIntegralMapper
+ UserIntegral getUserIntegralByUserId(Long)
+ Integer addOrUpdateUserIntegral(UserIntegral)
}
interface com.welab.integral.common.Urls {
~ String ROOT
~ String ROOT_DESC
~ String V1
}
class com.welab.integral.test.UserIntegralDubboServiceTest {
- UserIntegralDubboService userIntegralDubboService
+ void updateUserIntegral()
+ void getUserIntegralInfo()
}
class com.welab.integral.test.TempTest {
- DefaultConfigService defaultConfigService
+ void yaml()
+ void yaml2()
}
class com.welab.integral.config.Swagger2Config {
+ Docket createRestApi()
- ApiInfo apiInfo()
}
class com.welab.integral.dto.UserIntegralTrackInfoDto {
- Long userId
- String eventType
}
class com.welab.integral.service.impl.UserIntegralDubboServiceImpl {
- Logger logger
- UserIntegralService userIntegralService
- UserIntegralTrackMapper userIntegralTrackMapper
+ Integer getUserRemainingIntegral(Long)
+ Integer getQuantityByEventType(Long,String)
+ Response<PageInfo<UserIntegralTrack>> getPageUserIntegralTrackBy(UserIntegralTrackInfoDto)
+ Response<UserIntegralInfoVo> getUserIntegralInfo(UserIntegralTrackInfoDto)
+ void updateUserIntegral(UserIntegralDto)
}
class com.welab.integral.model.UserIntegral {
- Long id
- Long userId
- Integer integral
- Date createdAt
- Date updatedAt
- Integer lockVersion
+ Long getId()
+ void setId(Long)
+ Long getUserId()
+ void setUserId(Long)
+ Integer getIntegral()
+ void setIntegral(Integer)
+ Date getCreatedAt()
+ void setCreatedAt(Date)
+ Date getUpdatedAt()
+ void setUpdatedAt(Date)
+ Integer getLockVersion()
+ void setLockVersion(Integer)
}
class com.welab.integral.exception.IntegralException {
- {static} long serialVersionUID
+ <<Create>> IntegralException(Integer)
+ <<Create>> IntegralException(Integer,String)
}
class com.welab.integral.dto.UserIntegralDto {
- {static} long serialVersionUID
- Long userId
- String eventType
- Integer integral
- String remark
}
interface com.welab.integral.mapper.UserIntegralMapper {
~ int insert(UserIntegral)
~ UserIntegral selectByUserId(Long)
~ int updateByPrimaryKey(UserIntegral)
}
class com.welab.integral.test.ScaffoldTest {
- DefaultConfigService config
- String ZOOKEEPER_URL
+ void test1()
+ void appId()
}
interface com.welab.integral.service.UserIntegralDubboService {
~ Integer getUserRemainingIntegral(Long)
~ Integer getQuantityByEventType(Long,String)
~ void updateUserIntegral(UserIntegralDto)
~ Response<PageInfo<UserIntegralTrack>> getPageUserIntegralTrackBy(UserIntegralTrackInfoDto)
~ Response<UserIntegralInfoVo> getUserIntegralInfo(UserIntegralTrackInfoDto)
}
class com.welab.integral.vo.UserIntegralTrack {
- {static} long serialVersionUID
- Long id
- Long userId
- Integer updateIntegral
- Integer remainingIntegral
- String eventType
- String remark
- Date createdAt
}
class com.welab.integral.filter.LogFilter {
- {static} Logger LOGGER
- {static} String NOTIFICATION_PREFIX
- {static} String REQUEST_PREFIX
- {static} String RESPONSE_PREFIX
- AtomicLong _id
# void doFilterInternal(HttpServletRequest,HttpServletResponse,FilterChain)
+ void destroy()
- void log(StringBuilder)
- StringBuilder prefixId(StringBuilder,long)
- void printRequestLine(StringBuilder,String,long,String,String)
- void printResponseLine(StringBuilder,String,long,int)
- void printPrefixedHeaders(StringBuilder,long,String,HttpServletRequest)
}
class com.welab.integral.Application {
- {static} Logger LOG
+ HttpMessageConverters fastJsonHttpMessageConverters()
+ FilterRegistrationBean logRegistration()
+ {static} void main(String[])
}
class com.welab.integral.test.SimpleTest {
# Logger logger
}
class com.welab.integral.dto.PageInfoDto {
- {static} long serialVersionUID
# Integer pageNum
# Integer pageSize
}
class com.welab.integral.vo.UserIntegralInfoVo {
- {static} long serialVersionUID
- Integer integral
- Integer inviteesQuantity
- PageInfo<UserIntegralTrack> userIntegralTrackPageInfo
}
interface com.welab.integral.mapper.UserIntegralTrackMapper {
~ int insert(UserIntegralTrack)
~ List<UserIntegralTrack> selectUserIntegralTrackList(Long,String)
~ int selectCountByUserIdAndEvevtType(Long,String)
}


com.welab.integral.test.SimpleTest <|- - com.welab.integral.test.UserIntegralDubboServiceTest
com.welab.integral.dto.PageInfoDto <|- - com.welab.integral.dto.UserIntegralTrackInfoDto
com.welab.integral.service.UserIntegralDubboService <|.. com.welab.integral.service.impl.UserIntegralDubboServiceImpl
com.welab.common.exception.FastRuntimeException <|- - com.welab.integral.exception.IntegralException
java.io.Serializable <|.. com.welab.integral.dto.UserIntegralDto
com.welab.integral.test.SimpleTest <|- - com.welab.integral.test.ScaffoldTest
java.io.Serializable <|.. com.welab.integral.vo.UserIntegralTrack
org.springframework.web.filter.OncePerRequestFilter <|- - com.welab.integral.filter.LogFilter
org.springframework.test.context.junit4.AbstractJUnit4SpringContextTests <|- - com.welab.integral.test.SimpleTest
java.io.Serializable <|.. com.welab.integral.dto.PageInfoDto
java.io.Serializable <|.. com.welab.integral.vo.UserIntegralInfoVo
@enduml

PlantUML version 1.2022.7(Tue Aug 23 00:01:30 ICT 2022)
(GPL source distribution)
Java Runtime: OpenJDK Runtime Environment
JVM: OpenJDK 64-Bit Server VM
Default Encoding: Cp1252
Language: en
Country: US
--></g></svg>